<?xml version="1.0" standalone="no"?>
 <!DOCTYPE svg PUBLIC "-//W3C//DTD SVG 1.1//EN" 
 "http://www.w3.org/Graphics/SVG/1.1/DTD/svg11.dtd"> 
<svg
  xmlns:svg="http://www.w3.org/2000/svg"
  xmlns="http://www.w3.org/2000/svg"
  xmlns:xlink="http://www.w3.org/1999/xlink"
  version="1.1"
  width="39.9796mm" height="34.9758mm" viewBox="0.0000 0.0000 39.9796 34.9758">
<title>SVG Image created as pcb_stack.svg date 2026/03/11 10:13:18 </title>
  <desc>Image generated by PCBNEW </desc>
<g style="fill:#000000; fill-opacity:1.0000;stroke:#000000; stroke-opacity:1.0000;
stroke-linecap:round; stroke-linejoin:round;"
 transform="translate(0 0) scale(1 1)">
</g>
<g style="fill:none; 
stroke:#C872AB; stroke-width:0.1500; stroke-opacity:1; 
stroke-linecap:round; stroke-linejoin:round;">
<path d="M-200.0000 -84.0000
L-92.0000 -84.0000
L-92.0000 -52.0000
L-200.0000 -52.0000
L-200.0000 -84.0000
" />
</g>
<g style="fill:none; 
stroke:#C872AB; stroke-width:0.1500; stroke-opacity:1; 
stroke-linecap:round; stroke-linejoin:round;">
<path d="M-110.0000 -65.0000
L-90.0000 -65.0000
L-90.0000 -50.0000
L-110.0000 -50.0000
L-110.0000 -65.0000
" />
</g>
<g style="fill:none; 
stroke:#C872AB; stroke-width:0.1500; stroke-opacity:1; 
stroke-linecap:round; stroke-linejoin:round;">
<path d="M-108.0000 -63.0000
L-92.0000 -63.0000
L-92.0000 -52.0000
L-108.0000 -52.0000
L-108.0000 -63.0000
" />
</g>
<g style="fill:none; 
stroke:#C872AB; stroke-width:0.1500; stroke-opacity:1; 
stroke-linecap:round; stroke-linejoin:round;">
<path d="M-60.0000 -63.0000
L-60.0000 -65.0000
" />
</g>
<g style="fill:none; 
stroke:#C872AB; stroke-width:0.1500; stroke-opacity:1; 
stroke-linecap:round; stroke-linejoin:round;">
<text x="-85.0000" y="-63.3500"
textLength="1.4281" font-size="1.7333" lengthAdjust="spacingAndGlyphs"
text-anchor="start" opacity="0" stroke-opacity="0">1</text>
<g class="stroked-text"><desc>1</desc>
<path d="M-83.9108 -63.4064
L-84.6537 -63.4064
" />
<path d="M-84.2823 -63.4064
L-84.2823 -64.7064
" />
<path d="M-84.2823 -64.7064
L-84.4061 -64.5207
" />
<path d="M-84.4061 -64.5207
L-84.5299 -64.3969
" />
<path d="M-84.5299 -64.3969
L-84.6537 -64.3350
" />
</g></g>
<g style="fill:none; 
stroke:#C872AB; stroke-width:0.1500; stroke-opacity:1; 
stroke-linecap:round; stroke-linejoin:round;">
<path d="M-60.0000 -52.0000
L-60.0000 -50.0000
" />
</g>
<g style="fill:none; 
stroke:#C872AB; stroke-width:0.1500; stroke-opacity:1; 
stroke-linecap:round; stroke-linejoin:round;">
<text x="-85.0000" y="-50.3500"
textLength="1.4281" font-size="1.7333" lengthAdjust="spacingAndGlyphs"
text-anchor="start" opacity="0" stroke-opacity="0">1</text>
<g class="stroked-text"><desc>1</desc>
<path d="M-83.9108 -50.4064
L-84.6537 -50.4064
" />
<path d="M-84.2823 -50.4064
L-84.2823 -51.7064
" />
<path d="M-84.2823 -51.7064
L-84.4061 -51.5207
" />
<path d="M-84.4061 -51.5207
L-84.5299 -51.3969
" />
<path d="M-84.5299 -51.3969
L-84.6537 -51.3350
" />
</g></g>
<g style="fill:none; 
stroke:#C872AB; stroke-width:0.1500; stroke-opacity:1; 
stroke-linecap:round; stroke-linejoin:round;">
<path d="M-110.0000 -15.0000
L-108.0000 -15.0000
" />
</g>
<g style="fill:none; 
stroke:#C872AB; stroke-width:0.1500; stroke-opacity:1; 
stroke-linecap:round; stroke-linejoin:round;">
<text x="-109.0000" y="-39.3500"
textLength="1.3043" font-size="1.7333" lengthAdjust="spacingAndGlyphs"
text-anchor="middle" opacity="0" stroke-opacity="0">A</text>
<g class="stroked-text"><desc>A</desc>
<path d="M-109.3095 -39.7778
L-108.6905 -39.7778
" />
<path d="M-109.4333 -39.4064
L-109.0000 -40.7064
" />
<path d="M-109.0000 -40.7064
L-108.5667 -39.4064
" />
</g></g>
<g style="fill:none; 
stroke:#C872AB; stroke-width:0.1500; stroke-opacity:1; 
stroke-linecap:round; stroke-linejoin:round;">
<path d="M-90.0000 -15.0000
L-92.0000 -15.0000
" />
</g>
<g style="fill:none; 
stroke:#C872AB; stroke-width:0.1500; stroke-opacity:1; 
stroke-linecap:round; stroke-linejoin:round;">
<text x="-91.0000" y="-39.3500"
textLength="1.3043" font-size="1.7333" lengthAdjust="spacingAndGlyphs"
text-anchor="middle" opacity="0" stroke-opacity="0">A</text>
<g class="stroked-text"><desc>A</desc>
<path d="M-91.3095 -39.7778
L-90.6905 -39.7778
" />
<path d="M-91.4333 -39.4064
L-91.0000 -40.7064
" />
<path d="M-91.0000 -40.7064
L-90.5667 -39.4064
" />
</g></g>
<g style="fill:none; 
stroke:#C872AB; stroke-width:0.1500; stroke-opacity:1; 
stroke-linecap:round; stroke-linejoin:round;">
<text x="-177.0000" y="-56.1500"
textLength="7.0071" font-size="2.0000" lengthAdjust="spacingAndGlyphs"
text-anchor="start" opacity="0" stroke-opacity="0">Date: </text>
<g class="stroked-text"><desc>Date: </desc>
<path d="M-176.5442 -56.2139
L-176.5442 -57.7139
" />
<path d="M-176.5442 -57.7139
L-176.1870 -57.7139
" />
<path d="M-176.1870 -57.7139
L-175.9727 -57.6424
" />
<path d="M-175.9727 -57.6424
L-175.8299 -57.4996
" />
<path d="M-175.8299 -57.4996
L-175.7585 -57.3567
" />
<path d="M-175.7585 -57.3567
L-175.6870 -57.0710
" />
<path d="M-175.6870 -57.0710
L-175.6870 -56.8567
" />
<path d="M-175.6870 -56.8567
L-175.7585 -56.5710
" />
<path d="M-175.7585 -56.5710
L-175.8299 -56.4282
" />
<path d="M-175.8299 -56.4282
L-175.9727 -56.2853
" />
<path d="M-175.9727 -56.2853
L-176.1870 -56.2139
" />
<path d="M-176.1870 -56.2139
L-176.5442 -56.2139
" />
<path d="M-174.4013 -56.2139
L-174.4013 -56.9996
" />
<path d="M-174.4013 -56.9996
L-174.4727 -57.1424
" />
<path d="M-174.4727 -57.1424
L-174.6156 -57.2139
" />
<path d="M-174.6156 -57.2139
L-174.9013 -57.2139
" />
<path d="M-174.9013 -57.2139
L-175.0442 -57.1424
" />
<path d="M-174.4013 -56.2853
L-174.5442 -56.2139
" />
<path d="M-174.5442 -56.2139
L-174.9013 -56.2139
" />
<path d="M-174.9013 -56.2139
L-175.0442 -56.2853
" />
<path d="M-175.0442 -56.2853
L-175.1156 -56.4282
" />
<path d="M-175.1156 -56.4282
L-175.1156 -56.5710
" />
<path d="M-175.1156 -56.5710
L-175.0442 -56.7139
" />
<path d="M-175.0442 -56.7139
L-174.9013 -56.7853
" />
<path d="M-174.9013 -56.7853
L-174.5442 -56.7853
" />
<path d="M-174.5442 -56.7853
L-174.4013 -56.8567
" />
<path d="M-173.9013 -57.2139
L-173.3299 -57.2139
" />
<path d="M-173.6870 -57.7139
L-173.6870 -56.4282
" />
<path d="M-173.6870 -56.4282
L-173.6156 -56.2853
" />
<path d="M-173.6156 -56.2853
L-173.4727 -56.2139
" />
<path d="M-173.4727 -56.2139
L-173.3299 -56.2139
" />
<path d="M-172.2585 -56.2853
L-172.4013 -56.2139
" />
<path d="M-172.4013 -56.2139
L-172.6870 -56.2139
" />
<path d="M-172.6870 -56.2139
L-172.8299 -56.2853
" />
<path d="M-172.8299 -56.2853
L-172.9013 -56.4282
" />
<path d="M-172.9013 -56.4282
L-172.9013 -56.9996
" />
<path d="M-172.9013 -56.9996
L-172.8299 -57.1424
" />
<path d="M-172.8299 -57.1424
L-172.6870 -57.2139
" />
<path d="M-172.6870 -57.2139
L-172.4013 -57.2139
" />
<path d="M-172.4013 -57.2139
L-172.2585 -57.1424
" />
<path d="M-172.2585 -57.1424
L-172.1870 -56.9996
" />
<path d="M-172.1870 -56.9996
L-172.1870 -56.8567
" />
<path d="M-172.1870 -56.8567
L-172.9013 -56.7139
" />
<path d="M-171.5442 -56.3567
L-171.4727 -56.2853
" />
<path d="M-171.4727 -56.2853
L-171.5442 -56.2139
" />
<path d="M-171.5442 -56.2139
L-171.6156 -56.2853
" />
<path d="M-171.6156 -56.2853
L-171.5442 -56.3567
" />
<path d="M-171.5442 -56.3567
L-171.5442 -56.2139
" />
<path d="M-171.5442 -57.1424
L-171.4727 -57.0710
" />
<path d="M-171.4727 -57.0710
L-171.5442 -56.9996
" />
<path d="M-171.5442 -56.9996
L-171.6156 -57.0710
" />
<path d="M-171.6156 -57.0710
L-171.5442 -57.1424
" />
<path d="M-171.5442 -57.1424
L-171.5442 -56.9996
" />
</g></g>
<g style="fill:none; 
stroke:#C872AB; stroke-width:0.1500; stroke-opacity:1; 
stroke-linecap:round; stroke-linejoin:round;">
<path d="M-200.0000 -55.5000
L-92.0000 -55.5000
" />
</g>
<g style="fill:none; 
stroke:#C872AB; stroke-width:0.1500; stroke-opacity:1; 
stroke-linecap:round; stroke-linejoin:round;">
<text x="-199.0000" y="-53.3500"
textLength="20.8643" font-size="2.0000" lengthAdjust="spacingAndGlyphs"
text-anchor="start" opacity="0" stroke-opacity="0">KiCad E.D.A. 9.0.7</text>
<g class="stroked-text"><desc>KiCad E.D.A. 9.0.7</desc>
<path d="M-198.5442 -53.4139
L-198.5442 -54.9139
" />
<path d="M-197.6870 -53.4139
L-198.3299 -54.2710
" />
<path d="M-197.6870 -54.9139
L-198.5442 -54.0567
" />
<path d="M-197.0442 -53.4139
L-197.0442 -54.4139
" />
<path d="M-197.0442 -54.9139
L-197.1156 -54.8424
" />
<path d="M-197.1156 -54.8424
L-197.0442 -54.7710
" />
<path d="M-197.0442 -54.7710
L-196.9727 -54.8424
" />
<path d="M-196.9727 -54.8424
L-197.0442 -54.9139
" />
<path d="M-197.0442 -54.9139
L-197.0442 -54.7710
" />
<path d="M-195.4727 -53.5567
L-195.5442 -53.4853
" />
<path d="M-195.5442 -53.4853
L-195.7585 -53.4139
" />
<path d="M-195.7585 -53.4139
L-195.9013 -53.4139
" />
<path d="M-195.9013 -53.4139
L-196.1156 -53.4853
" />
<path d="M-196.1156 -53.4853
L-196.2585 -53.6282
" />
<path d="M-196.2585 -53.6282
L-196.3299 -53.7710
" />
<path d="M-196.3299 -53.7710
L-196.4013 -54.0567
" />
<path d="M-196.4013 -54.0567
L-196.4013 -54.2710
" />
<path d="M-196.4013 -54.2710
L-196.3299 -54.5567
" />
<path d="M-196.3299 -54.5567
L-196.2585 -54.6996
" />
<path d="M-196.2585 -54.6996
L-196.1156 -54.8424
" />
<path d="M-196.1156 -54.8424
L-195.9013 -54.9139
" />
<path d="M-195.9013 -54.9139
L-195.7585 -54.9139
" />
<path d="M-195.7585 -54.9139
L-195.5442 -54.8424
" />
<path d="M-195.5442 -54.8424
L-195.4727 -54.7710
" />
<path d="M-194.1870 -53.4139
L-194.1870 -54.1996
" />
<path d="M-194.1870 -54.1996
L-194.2585 -54.3424
" />
<path d="M-194.2585 -54.3424
L-194.4013 -54.4139
" />
<path d="M-194.4013 -54.4139
L-194.6870 -54.4139
" />
<path d="M-194.6870 -54.4139
L-194.8299 -54.3424
" />
<path d="M-194.1870 -53.4853
L-194.3299 -53.4139
" />
<path d="M-194.3299 -53.4139
L-194.6870 -53.4139
" />
<path d="M-194.6870 -53.4139
L-194.8299 -53.4853
" />
<path d="M-194.8299 -53.4853
L-194.9013 -53.6282
" />
<path d="M-194.9013 -53.6282
L-194.9013 -53.7710
" />
<path d="M-194.9013 -53.7710
L-194.8299 -53.9139
" />
<path d="M-194.8299 -53.9139
L-194.6870 -53.9853
" />
<path d="M-194.6870 -53.9853
L-194.3299 -53.9853
" />
<path d="M-194.3299 -53.9853
L-194.1870 -54.0567
" />
<path d="M-192.8299 -53.4139
L-192.8299 -54.9139
" />
<path d="M-192.8299 -53.4853
L-192.9727 -53.4139
" />
<path d="M-192.9727 -53.4139
L-193.2585 -53.4139
" />
<path d="M-193.2585 -53.4139
L-193.4013 -53.4853
" />
<path d="M-193.4013 -53.4853
L-193.4727 -53.5567
" />
<path d="M-193.4727 -53.5567
L-193.5442 -53.6996
" />
<path d="M-193.5442 -53.6996
L-193.5442 -54.1282
" />
<path d="M-193.5442 -54.1282
L-193.4727 -54.2710
" />
<path d="M-193.4727 -54.2710
L-193.4013 -54.3424
" />
<path d="M-193.4013 -54.3424
L-193.2585 -54.4139
" />
<path d="M-193.2585 -54.4139
L-192.9727 -54.4139
" />
<path d="M-192.9727 -54.4139
L-192.8299 -54.3424
" />
<path d="M-190.9727 -54.1996
L-190.4727 -54.1996
" />
<path d="M-190.2585 -53.4139
L-190.9727 -53.4139
" />
<path d="M-190.9727 -53.4139
L-190.9727 -54.9139
" />
<path d="M-190.9727 -54.9139
L-190.2585 -54.9139
" />
<path d="M-189.6156 -53.5567
L-189.5442 -53.4853
" />
<path d="M-189.5442 -53.4853
L-189.6156 -53.4139
" />
<path d="M-189.6156 -53.4139
L-189.6870 -53.4853
" />
<path d="M-189.6870 -53.4853
L-189.6156 -53.5567
" />
<path d="M-189.6156 -53.5567
L-189.6156 -53.4139
" />
<path d="M-188.9013 -53.4139
L-188.9013 -54.9139
" />
<path d="M-188.9013 -54.9139
L-188.5442 -54.9139
" />
<path d="M-188.5442 -54.9139
L-188.3299 -54.8424
" />
<path d="M-188.3299 -54.8424
L-188.1870 -54.6996
" />
<path d="M-188.1870 -54.6996
L-188.1156 -54.5567
" />
<path d="M-188.1156 -54.5567
L-188.0442 -54.2710
" />
<path d="M-188.0442 -54.2710
L-188.0442 -54.0567
" />
<path d="M-188.0442 -54.0567
L-188.1156 -53.7710
" />
<path d="M-188.1156 -53.7710
L-188.1870 -53.6282
" />
<path d="M-188.1870 -53.6282
L-188.3299 -53.4853
" />
<path d="M-188.3299 -53.4853
L-188.5442 -53.4139
" />
<path d="M-188.5442 -53.4139
L-188.9013 -53.4139
" />
<path d="M-187.4013 -53.5567
L-187.3299 -53.4853
" />
<path d="M-187.3299 -53.4853
L-187.4013 -53.4139
" />
<path d="M-187.4013 -53.4139
L-187.4727 -53.4853
" />
<path d="M-187.4727 -53.4853
L-187.4013 -53.5567
" />
<path d="M-187.4013 -53.5567
L-187.4013 -53.4139
" />
<path d="M-186.7585 -53.8424
L-186.0442 -53.8424
" />
<path d="M-186.9013 -53.4139
L-186.4013 -54.9139
" />
<path d="M-186.4013 -54.9139
L-185.9013 -53.4139
" />
<path d="M-185.4013 -53.5567
L-185.3299 -53.4853
" />
<path d="M-185.3299 -53.4853
L-185.4013 -53.4139
" />
<path d="M-185.4013 -53.4139
L-185.4727 -53.4853
" />
<path d="M-185.4727 -53.4853
L-185.4013 -53.5567
" />
<path d="M-185.4013 -53.5567
L-185.4013 -53.4139
" />
<path d="M-183.4727 -53.4139
L-183.1870 -53.4139
" />
<path d="M-183.1870 -53.4139
L-183.0442 -53.4853
" />
<path d="M-183.0442 -53.4853
L-182.9727 -53.5567
" />
<path d="M-182.9727 -53.5567
L-182.8299 -53.7710
" />
<path d="M-182.8299 -53.7710
L-182.7585 -54.0567
" />
<path d="M-182.7585 -54.0567
L-182.7585 -54.6282
" />
<path d="M-182.7585 -54.6282
L-182.8299 -54.7710
" />
<path d="M-182.8299 -54.7710
L-182.9013 -54.8424
" />
<path d="M-182.9013 -54.8424
L-183.0442 -54.9139
" />
<path d="M-183.0442 -54.9139
L-183.3299 -54.9139
" />
<path d="M-183.3299 -54.9139
L-183.4727 -54.8424
" />
<path d="M-183.4727 -54.8424
L-183.5442 -54.7710
" />
<path d="M-183.5442 -54.7710
L-183.6156 -54.6282
" />
<path d="M-183.6156 -54.6282
L-183.6156 -54.2710
" />
<path d="M-183.6156 -54.2710
L-183.5442 -54.1282
" />
<path d="M-183.5442 -54.1282
L-183.4727 -54.0567
" />
<path d="M-183.4727 -54.0567
L-183.3299 -53.9853
" />
<path d="M-183.3299 -53.9853
L-183.0442 -53.9853
" />
<path d="M-183.0442 -53.9853
L-182.9013 -54.0567
" />
<path d="M-182.9013 -54.0567
L-182.8299 -54.1282
" />
<path d="M-182.8299 -54.1282
L-182.7585 -54.2710
" />
<path d="M-182.1156 -53.5567
L-182.0442 -53.4853
" />
<path d="M-182.0442 -53.4853
L-182.1156 -53.4139
" />
<path d="M-182.1156 -53.4139
L-182.1870 -53.4853
" />
<path d="M-182.1870 -53.4853
L-182.1156 -53.5567
" />
<path d="M-182.1156 -53.5567
L-182.1156 -53.4139
" />
<path d="M-181.1156 -54.9139
L-180.9727 -54.9139
" />
<path d="M-180.9727 -54.9139
L-180.8299 -54.8424
" />
<path d="M-180.8299 -54.8424
L-180.7585 -54.7710
" />
<path d="M-180.7585 -54.7710
L-180.6870 -54.6282
" />
<path d="M-180.6870 -54.6282
L-180.6156 -54.3424
" />
<path d="M-180.6156 -54.3424
L-180.6156 -53.9853
" />
<path d="M-180.6156 -53.9853
L-180.6870 -53.6996
" />
<path d="M-180.6870 -53.6996
L-180.7585 -53.5567
" />
<path d="M-180.7585 -53.5567
L-180.8299 -53.4853
" />
<path d="M-180.8299 -53.4853
L-180.9727 -53.4139
" />
<path d="M-180.9727 -53.4139
L-181.1156 -53.4139
" />
<path d="M-181.1156 -53.4139
L-181.2585 -53.4853
" />
<path d="M-181.2585 -53.4853
L-181.3299 -53.5567
" />
<path d="M-181.3299 -53.5567
L-181.4013 -53.6996
" />
<path d="M-181.4013 -53.6996
L-181.4727 -53.9853
" />
<path d="M-181.4727 -53.9853
L-181.4727 -54.3424
" />
<path d="M-181.4727 -54.3424
L-181.4013 -54.6282
" />
<path d="M-181.4013 -54.6282
L-181.3299 -54.7710
" />
<path d="M-181.3299 -54.7710
L-181.2585 -54.8424
" />
<path d="M-181.2585 -54.8424
L-181.1156 -54.9139
" />
<path d="M-179.9727 -53.5567
L-179.9013 -53.4853
" />
<path d="M-179.9013 -53.4853
L-179.9727 -53.4139
" />
<path d="M-179.9727 -53.4139
L-180.0442 -53.4853
" />
<path d="M-180.0442 -53.4853
L-179.9727 -53.5567
" />
<path d="M-179.9727 -53.5567
L-179.9727 -53.4139
" />
<path d="M-179.4013 -54.9139
L-178.4013 -54.9139
" />
<path d="M-178.4013 -54.9139
L-179.0442 -53.4139
" />
</g></g>
<g style="fill:none; 
stroke:#C872AB; stroke-width:0.1500; stroke-opacity:1; 
stroke-linecap:round; stroke-linejoin:round;">
<path d="M-200.0000 -58.5000
L-92.0000 -58.5000
" />
</g>
<g style="fill:none; 
stroke:#C872AB; stroke-width:0.3000; stroke-opacity:1; 
stroke-linecap:round; stroke-linejoin:round;">
<text x="-114.0000" y="-56.1500"
textLength="6.3857" font-size="2.0000" lengthAdjust="spacingAndGlyphs"
text-anchor="start" opacity="0" stroke-opacity="0">Rev: </text>
<g class="stroked-text"><desc>Rev: </desc>
<path d="M-112.5883 -56.2217
L-113.0883 -56.9360
" />
<path d="M-113.4455 -56.2217
L-113.4455 -57.7217
" />
<path d="M-113.4455 -57.7217
L-112.8741 -57.7217
" />
<path d="M-112.8741 -57.7217
L-112.7312 -57.6502
" />
<path d="M-112.7312 -57.6502
L-112.6598 -57.5788
" />
<path d="M-112.6598 -57.5788
L-112.5883 -57.4360
" />
<path d="M-112.5883 -57.4360
L-112.5883 -57.2217
" />
<path d="M-112.5883 -57.2217
L-112.6598 -57.0788
" />
<path d="M-112.6598 -57.0788
L-112.7312 -57.0074
" />
<path d="M-112.7312 -57.0074
L-112.8741 -56.9360
" />
<path d="M-112.8741 -56.9360
L-113.4455 -56.9360
" />
<path d="M-111.3741 -56.2931
L-111.5169 -56.2217
" />
<path d="M-111.5169 -56.2217
L-111.8026 -56.2217
" />
<path d="M-111.8026 -56.2217
L-111.9455 -56.2931
" />
<path d="M-111.9455 -56.2931
L-112.0169 -56.4360
" />
<path d="M-112.0169 -56.4360
L-112.0169 -57.0074
" />
<path d="M-112.0169 -57.0074
L-111.9455 -57.1502
" />
<path d="M-111.9455 -57.1502
L-111.8026 -57.2217
" />
<path d="M-111.8026 -57.2217
L-111.5169 -57.2217
" />
<path d="M-111.5169 -57.2217
L-111.3741 -57.1502
" />
<path d="M-111.3741 -57.1502
L-111.3026 -57.0074
" />
<path d="M-111.3026 -57.0074
L-111.3026 -56.8645
" />
<path d="M-111.3026 -56.8645
L-112.0169 -56.7217
" />
<path d="M-110.8026 -57.2217
L-110.4455 -56.2217
" />
<path d="M-110.4455 -56.2217
L-110.0883 -57.2217
" />
<path d="M-109.5169 -56.3645
L-109.4455 -56.2931
" />
<path d="M-109.4455 -56.2931
L-109.5169 -56.2217
" />
<path d="M-109.5169 -56.2217
L-109.5883 -56.2931
" />
<path d="M-109.5883 -56.2931
L-109.5169 -56.3645
" />
<path d="M-109.5169 -56.3645
L-109.5169 -56.2217
" />
<path d="M-109.5169 -57.1502
L-109.4455 -57.0788
" />
<path d="M-109.4455 -57.0788
L-109.5169 -57.0074
" />
<path d="M-109.5169 -57.0074
L-109.5883 -57.0788
" />
<path d="M-109.5883 -57.0788
L-109.5169 -57.1502
" />
<path d="M-109.5169 -57.1502
L-109.5169 -57.0074
" />
</g></g>
<g style="fill:none; 
stroke:#C872AB; stroke-width:0.1500; stroke-opacity:1; 
stroke-linecap:round; stroke-linejoin:round;">
<text x="-199.0000" y="-56.1500"
textLength="11.6500" font-size="2.0000" lengthAdjust="spacingAndGlyphs"
text-anchor="start" opacity="0" stroke-opacity="0">Size: User</text>
<g class="stroked-text"><desc>Size: User</desc>
<path d="M-198.6156 -56.2853
L-198.4013 -56.2139
" />
<path d="M-198.4013 -56.2139
L-198.0442 -56.2139
" />
<path d="M-198.0442 -56.2139
L-197.9013 -56.2853
" />
<path d="M-197.9013 -56.2853
L-197.8299 -56.3567
" />
<path d="M-197.8299 -56.3567
L-197.7585 -56.4996
" />
<path d="M-197.7585 -56.4996
L-197.7585 -56.6424
" />
<path d="M-197.7585 -56.6424
L-197.8299 -56.7853
" />
<path d="M-197.8299 -56.7853
L-197.9013 -56.8567
" />
<path d="M-197.9013 -56.8567
L-198.0442 -56.9282
" />
<path d="M-198.0442 -56.9282
L-198.3299 -56.9996
" />
<path d="M-198.3299 -56.9996
L-198.4727 -57.0710
" />
<path d="M-198.4727 -57.0710
L-198.5442 -57.1424
" />
<path d="M-198.5442 -57.1424
L-198.6156 -57.2853
" />
<path d="M-198.6156 -57.2853
L-198.6156 -57.4282
" />
<path d="M-198.6156 -57.4282
L-198.5442 -57.5710
" />
<path d="M-198.5442 -57.5710
L-198.4727 -57.6424
" />
<path d="M-198.4727 -57.6424
L-198.3299 -57.7139
" />
<path d="M-198.3299 -57.7139
L-197.9727 -57.7139
" />
<path d="M-197.9727 -57.7139
L-197.7585 -57.6424
" />
<path d="M-197.1156 -56.2139
L-197.1156 -57.2139
" />
<path d="M-197.1156 -57.7139
L-197.1870 -57.6424
" />
<path d="M-197.1870 -57.6424
L-197.1156 -57.5710
" />
<path d="M-197.1156 -57.5710
L-197.0442 -57.6424
" />
<path d="M-197.0442 -57.6424
L-197.1156 -57.7139
" />
<path d="M-197.1156 -57.7139
L-197.1156 -57.5710
" />
<path d="M-196.5442 -57.2139
L-195.7585 -57.2139
" />
<path d="M-195.7585 -57.2139
L-196.5442 -56.2139
" />
<path d="M-196.5442 -56.2139
L-195.7585 -56.2139
" />
<path d="M-194.6156 -56.2853
L-194.7585 -56.2139
" />
<path d="M-194.7585 -56.2139
L-195.0442 -56.2139
" />
<path d="M-195.0442 -56.2139
L-195.1870 -56.2853
" />
<path d="M-195.1870 -56.2853
L-195.2585 -56.4282
" />
<path d="M-195.2585 -56.4282
L-195.2585 -56.9996
" />
<path d="M-195.2585 -56.9996
L-195.1870 -57.1424
" />
<path d="M-195.1870 -57.1424
L-195.0442 -57.2139
" />
<path d="M-195.0442 -57.2139
L-194.7585 -57.2139
" />
<path d="M-194.7585 -57.2139
L-194.6156 -57.1424
" />
<path d="M-194.6156 -57.1424
L-194.5442 -56.9996
" />
<path d="M-194.5442 -56.9996
L-194.5442 -56.8567
" />
<path d="M-194.5442 -56.8567
L-195.2585 -56.7139
" />
<path d="M-193.9013 -56.3567
L-193.8299 -56.2853
" />
<path d="M-193.8299 -56.2853
L-193.9013 -56.2139
" />
<path d="M-193.9013 -56.2139
L-193.9727 -56.2853
" />
<path d="M-193.9727 -56.2853
L-193.9013 -56.3567
" />
<path d="M-193.9013 -56.3567
L-193.9013 -56.2139
" />
<path d="M-193.9013 -57.1424
L-193.8299 -57.0710
" />
<path d="M-193.8299 -57.0710
L-193.9013 -56.9996
" />
<path d="M-193.9013 -56.9996
L-193.9727 -57.0710
" />
<path d="M-193.9727 -57.0710
L-193.9013 -57.1424
" />
<path d="M-193.9013 -57.1424
L-193.9013 -56.9996
" />
<path d="M-192.0442 -57.7139
L-192.0442 -56.4996
" />
<path d="M-192.0442 -56.4996
L-191.9727 -56.3567
" />
<path d="M-191.9727 -56.3567
L-191.9013 -56.2853
" />
<path d="M-191.9013 -56.2853
L-191.7585 -56.2139
" />
<path d="M-191.7585 -56.2139
L-191.4727 -56.2139
" />
<path d="M-191.4727 -56.2139
L-191.3299 -56.2853
" />
<path d="M-191.3299 -56.2853
L-191.2585 -56.3567
" />
<path d="M-191.2585 -56.3567
L-191.1870 -56.4996
" />
<path d="M-191.1870 -56.4996
L-191.1870 -57.7139
" />
<path d="M-190.5442 -56.2853
L-190.4013 -56.2139
" />
<path d="M-190.4013 -56.2139
L-190.1156 -56.2139
" />
<path d="M-190.1156 -56.2139
L-189.9727 -56.2853
" />
<path d="M-189.9727 -56.2853
L-189.9013 -56.4282
" />
<path d="M-189.9013 -56.4282
L-189.9013 -56.4996
" />
<path d="M-189.9013 -56.4996
L-189.9727 -56.6424
" />
<path d="M-189.9727 -56.6424
L-190.1156 -56.7139
" />
<path d="M-190.1156 -56.7139
L-190.3299 -56.7139
" />
<path d="M-190.3299 -56.7139
L-190.4727 -56.7853
" />
<path d="M-190.4727 -56.7853
L-190.5442 -56.9282
" />
<path d="M-190.5442 -56.9282
L-190.5442 -56.9996
" />
<path d="M-190.5442 -56.9996
L-190.4727 -57.1424
" />
<path d="M-190.4727 -57.1424
L-190.3299 -57.2139
" />
<path d="M-190.3299 -57.2139
L-190.1156 -57.2139
" />
<path d="M-190.1156 -57.2139
L-189.9727 -57.1424
" />
<path d="M-188.6870 -56.2853
L-188.8299 -56.2139
" />
<path d="M-188.8299 -56.2139
L-189.1156 -56.2139
" />
<path d="M-189.1156 -56.2139
L-189.2585 -56.2853
" />
<path d="M-189.2585 -56.2853
L-189.3299 -56.4282
" />
<path d="M-189.3299 -56.4282
L-189.3299 -56.9996
" />
<path d="M-189.3299 -56.9996
L-189.2585 -57.1424
" />
<path d="M-189.2585 -57.1424
L-189.1156 -57.2139
" />
<path d="M-189.1156 -57.2139
L-188.8299 -57.2139
" />
<path d="M-188.8299 -57.2139
L-188.6870 -57.1424
" />
<path d="M-188.6870 -57.1424
L-188.6156 -56.9996
" />
<path d="M-188.6156 -56.9996
L-188.6156 -56.8567
" />
<path d="M-188.6156 -56.8567
L-189.3299 -56.7139
" />
<path d="M-187.9727 -56.2139
L-187.9727 -57.2139
" />
<path d="M-187.9727 -56.9282
L-187.9013 -57.0710
" />
<path d="M-187.9013 -57.0710
L-187.8299 -57.1424
" />
<path d="M-187.8299 -57.1424
L-187.6870 -57.2139
" />
<path d="M-187.6870 -57.2139
L-187.5442 -57.2139
" />
</g></g>
<g style="fill:none; 
stroke:#C872AB; stroke-width:0.1500; stroke-opacity:1; 
stroke-linecap:round; stroke-linejoin:round;">
<text x="-114.0000" y="-53.3500"
textLength="8.5071" font-size="2.0000" lengthAdjust="spacingAndGlyphs"
text-anchor="start" opacity="0" stroke-opacity="0">Id: 1/1</text>
<g class="stroked-text"><desc>Id: 1/1</desc>
<path d="M-113.5442 -53.4139
L-113.5442 -54.9139
" />
<path d="M-112.1870 -53.4139
L-112.1870 -54.9139
" />
<path d="M-112.1870 -53.4853
L-112.3299 -53.4139
" />
<path d="M-112.3299 -53.4139
L-112.6156 -53.4139
" />
<path d="M-112.6156 -53.4139
L-112.7585 -53.4853
" />
<path d="M-112.7585 -53.4853
L-112.8299 -53.5567
" />
<path d="M-112.8299 -53.5567
L-112.9013 -53.6996
" />
<path d="M-112.9013 -53.6996
L-112.9013 -54.1282
" />
<path d="M-112.9013 -54.1282
L-112.8299 -54.2710
" />
<path d="M-112.8299 -54.2710
L-112.7585 -54.3424
" />
<path d="M-112.7585 -54.3424
L-112.6156 -54.4139
" />
<path d="M-112.6156 -54.4139
L-112.3299 -54.4139
" />
<path d="M-112.3299 -54.4139
L-112.1870 -54.3424
" />
<path d="M-111.4727 -53.5567
L-111.4013 -53.4853
" />
<path d="M-111.4013 -53.4853
L-111.4727 -53.4139
" />
<path d="M-111.4727 -53.4139
L-111.5442 -53.4853
" />
<path d="M-111.5442 -53.4853
L-111.4727 -53.5567
" />
<path d="M-111.4727 -53.5567
L-111.4727 -53.4139
" />
<path d="M-111.4727 -54.3424
L-111.4013 -54.2710
" />
<path d="M-111.4013 -54.2710
L-111.4727 -54.1996
" />
<path d="M-111.4727 -54.1996
L-111.5442 -54.2710
" />
<path d="M-111.5442 -54.2710
L-111.4727 -54.3424
" />
<path d="M-111.4727 -54.3424
L-111.4727 -54.1996
" />
<path d="M-108.8299 -53.4139
L-109.6870 -53.4139
" />
<path d="M-109.2585 -53.4139
L-109.2585 -54.9139
" />
<path d="M-109.2585 -54.9139
L-109.4013 -54.6996
" />
<path d="M-109.4013 -54.6996
L-109.5442 -54.5567
" />
<path d="M-109.5442 -54.5567
L-109.6870 -54.4853
" />
<path d="M-107.1156 -54.9853
L-108.4013 -53.0567
" />
<path d="M-105.8299 -53.4139
L-106.6870 -53.4139
" />
<path d="M-106.2585 -53.4139
L-106.2585 -54.9139
" />
<path d="M-106.2585 -54.9139
L-106.4013 -54.6996
" />
<path d="M-106.4013 -54.6996
L-106.5442 -54.5567
" />
<path d="M-106.5442 -54.5567
L-106.6870 -54.4853
" />
</g></g>
<g style="fill:none; 
stroke:#C872AB; stroke-width:0.1500; stroke-opacity:1; 
stroke-linecap:round; stroke-linejoin:round;">
<path d="M-200.0000 -62.5000
L-92.0000 -62.5000
" />
</g>
<g style="fill:none; 
stroke:#C872AB; stroke-width:0.4000; stroke-opacity:1; 
stroke-linecap:round; stroke-linejoin:round;">
<text x="-199.0000" y="-59.7000"
textLength="9.6571" font-size="2.6667" lengthAdjust="spacingAndGlyphs"
text-anchor="start" opacity="0" stroke-opacity="0">Title: </text>
<g class="stroked-text"><desc>Title: </desc>
<path d="M-198.3083 -61.7956
L-197.1654 -61.7956
" />
<path d="M-197.9868 -59.7956
L-197.7368 -61.7956
" />
<path d="M-196.7487 -59.7956
L-196.5821 -61.1289
" />
<path d="M-196.4987 -61.7956
L-196.6059 -61.7003
" />
<path d="M-196.6059 -61.7003
L-196.5226 -61.6051
" />
<path d="M-196.5226 -61.6051
L-196.4154 -61.7003
" />
<path d="M-196.4154 -61.7003
L-196.4987 -61.7956
" />
<path d="M-196.4987 -61.7956
L-196.5226 -61.6051
" />
<path d="M-195.9154 -61.1289
L-195.1535 -61.1289
" />
<path d="M-195.5464 -61.7956
L-195.7607 -60.0813
" />
<path d="M-195.7607 -60.0813
L-195.6892 -59.8908
" />
<path d="M-195.6892 -59.8908
L-195.5107 -59.7956
" />
<path d="M-195.5107 -59.7956
L-195.3202 -59.7956
" />
<path d="M-194.3678 -59.7956
L-194.5464 -59.8908
" />
<path d="M-194.5464 -59.8908
L-194.6178 -60.0813
" />
<path d="M-194.6178 -60.0813
L-194.4035 -61.7956
" />
<path d="M-192.8321 -59.8908
L-193.0345 -59.7956
" />
<path d="M-193.0345 -59.7956
L-193.4154 -59.7956
" />
<path d="M-193.4154 -59.7956
L-193.5940 -59.8908
" />
<path d="M-193.5940 -59.8908
L-193.6654 -60.0813
" />
<path d="M-193.6654 -60.0813
L-193.5702 -60.8432
" />
<path d="M-193.5702 -60.8432
L-193.4511 -61.0337
" />
<path d="M-193.4511 -61.0337
L-193.2487 -61.1289
" />
<path d="M-193.2487 -61.1289
L-192.8678 -61.1289
" />
<path d="M-192.8678 -61.1289
L-192.6892 -61.0337
" />
<path d="M-192.6892 -61.0337
L-192.6178 -60.8432
" />
<path d="M-192.6178 -60.8432
L-192.6416 -60.6527
" />
<path d="M-192.6416 -60.6527
L-193.6178 -60.4622
" />
<path d="M-191.8678 -59.9860
L-191.7845 -59.8908
" />
<path d="M-191.7845 -59.8908
L-191.8916 -59.7956
" />
<path d="M-191.8916 -59.7956
L-191.9749 -59.8908
" />
<path d="M-191.9749 -59.8908
L-191.8678 -59.9860
" />
<path d="M-191.8678 -59.9860
L-191.8916 -59.7956
" />
<path d="M-191.7368 -61.0337
L-191.6535 -60.9384
" />
<path d="M-191.6535 -60.9384
L-191.7607 -60.8432
" />
<path d="M-191.7607 -60.8432
L-191.8440 -60.9384
" />
<path d="M-191.8440 -60.9384
L-191.7368 -61.0337
" />
<path d="M-191.7368 -61.0337
L-191.7607 -60.8432
" />
</g></g>
<g style="fill:none; 
stroke:#C872AB; stroke-width:0.1500; stroke-opacity:1; 
stroke-linecap:round; stroke-linejoin:round;">
<text x="-199.0000" y="-63.5500"
textLength="31.2929" font-size="2.0000" lengthAdjust="spacingAndGlyphs"
text-anchor="start" opacity="0" stroke-opacity="0">File: usb-blinker.kicad_pcb</text>
<g class="stroked-text"><desc>File: usb-blinker.kicad_pcb</desc>
<path d="M-198.0442 -64.3996
L-198.5442 -64.3996
" />
<path d="M-198.5442 -63.6139
L-198.5442 -65.1139
" />
<path d="M-198.5442 -65.1139
L-197.8299 -65.1139
" />
<path d="M-197.2585 -63.6139
L-197.2585 -64.6139
" />
<path d="M-197.2585 -65.1139
L-197.3299 -65.0424
" />
<path d="M-197.3299 -65.0424
L-197.2585 -64.9710
" />
<path d="M-197.2585 -64.9710
L-197.1870 -65.0424
" />
<path d="M-197.1870 -65.0424
L-197.2585 -65.1139
" />
<path d="M-197.2585 -65.1139
L-197.2585 -64.9710
" />
<path d="M-196.3299 -63.6139
L-196.4727 -63.6853
" />
<path d="M-196.4727 -63.6853
L-196.5442 -63.8282
" />
<path d="M-196.5442 -63.8282
L-196.5442 -65.1139
" />
<path d="M-195.1870 -63.6853
L-195.3299 -63.6139
" />
<path d="M-195.3299 -63.6139
L-195.6156 -63.6139
" />
<path d="M-195.6156 -63.6139
L-195.7585 -63.6853
" />
<path d="M-195.7585 -63.6853
L-195.8299 -63.8282
" />
<path d="M-195.8299 -63.8282
L-195.8299 -64.3996
" />
<path d="M-195.8299 -64.3996
L-195.7585 -64.5424
" />
<path d="M-195.7585 -64.5424
L-195.6156 -64.6139
" />
<path d="M-195.6156 -64.6139
L-195.3299 -64.6139
" />
<path d="M-195.3299 -64.6139
L-195.1870 -64.5424
" />
<path d="M-195.1870 -64.5424
L-195.1156 -64.3996
" />
<path d="M-195.1156 -64.3996
L-195.1156 -64.2567
" />
<path d="M-195.1156 -64.2567
L-195.8299 -64.1139
" />
<path d="M-194.4727 -63.7567
L-194.4013 -63.6853
" />
<path d="M-194.4013 -63.6853
L-194.4727 -63.6139
" />
<path d="M-194.4727 -63.6139
L-194.5442 -63.6853
" />
<path d="M-194.5442 -63.6853
L-194.4727 -63.7567
" />
<path d="M-194.4727 -63.7567
L-194.4727 -63.6139
" />
<path d="M-194.4727 -64.5424
L-194.4013 -64.4710
" />
<path d="M-194.4013 -64.4710
L-194.4727 -64.3996
" />
<path d="M-194.4727 -64.3996
L-194.5442 -64.4710
" />
<path d="M-194.5442 -64.4710
L-194.4727 -64.5424
" />
<path d="M-194.4727 -64.5424
L-194.4727 -64.3996
" />
<path d="M-191.9727 -64.6139
L-191.9727 -63.6139
" />
<path d="M-192.6156 -64.6139
L-192.6156 -63.8282
" />
<path d="M-192.6156 -63.8282
L-192.5442 -63.6853
" />
<path d="M-192.5442 -63.6853
L-192.4013 -63.6139
" />
<path d="M-192.4013 -63.6139
L-192.1870 -63.6139
" />
<path d="M-192.1870 -63.6139
L-192.0442 -63.6853
" />
<path d="M-192.0442 -63.6853
L-191.9727 -63.7567
" />
<path d="M-191.3299 -63.6853
L-191.1870 -63.6139
" />
<path d="M-191.1870 -63.6139
L-190.9013 -63.6139
" />
<path d="M-190.9013 -63.6139
L-190.7585 -63.6853
" />
<path d="M-190.7585 -63.6853
L-190.6870 -63.8282
" />
<path d="M-190.6870 -63.8282
L-190.6870 -63.8996
" />
<path d="M-190.6870 -63.8996
L-190.7585 -64.0424
" />
<path d="M-190.7585 -64.0424
L-190.9013 -64.1139
" />
<path d="M-190.9013 -64.1139
L-191.1156 -64.1139
" />
<path d="M-191.1156 -64.1139
L-191.2585 -64.1853
" />
<path d="M-191.2585 -64.1853
L-191.3299 -64.3282
" />
<path d="M-191.3299 -64.3282
L-191.3299 -64.3996
" />
<path d="M-191.3299 -64.3996
L-191.2585 -64.5424
" />
<path d="M-191.2585 -64.5424
L-191.1156 -64.6139
" />
<path d="M-191.1156 -64.6139
L-190.9013 -64.6139
" />
<path d="M-190.9013 -64.6139
L-190.7585 -64.5424
" />
<path d="M-190.0442 -63.6139
L-190.0442 -65.1139
" />
<path d="M-190.0442 -64.5424
L-189.9013 -64.6139
" />
<path d="M-189.9013 -64.6139
L-189.6156 -64.6139
" />
<path d="M-189.6156 -64.6139
L-189.4727 -64.5424
" />
<path d="M-189.4727 -64.5424
L-189.4013 -64.4710
" />
<path d="M-189.4013 -64.4710
L-189.3299 -64.3282
" />
<path d="M-189.3299 -64.3282
L-189.3299 -63.8996
" />
<path d="M-189.3299 -63.8996
L-189.4013 -63.7567
" />
<path d="M-189.4013 -63.7567
L-189.4727 -63.6853
" />
<path d="M-189.4727 -63.6853
L-189.6156 -63.6139
" />
<path d="M-189.6156 -63.6139
L-189.9013 -63.6139
" />
<path d="M-189.9013 -63.6139
L-190.0442 -63.6853
" />
<path d="M-188.6870 -64.1853
L-187.5442 -64.1853
" />
<path d="M-186.8299 -63.6139
L-186.8299 -65.1139
" />
<path d="M-186.8299 -64.5424
L-186.6870 -64.6139
" />
<path d="M-186.6870 -64.6139
L-186.4013 -64.6139
" />
<path d="M-186.4013 -64.6139
L-186.2585 -64.5424
" />
<path d="M-186.2585 -64.5424
L-186.1870 -64.4710
" />
<path d="M-186.1870 -64.4710
L-186.1156 -64.3282
" />
<path d="M-186.1156 -64.3282
L-186.1156 -63.8996
" />
<path d="M-186.1156 -63.8996
L-186.1870 -63.7567
" />
<path d="M-186.1870 -63.7567
L-186.2585 -63.6853
" />
<path d="M-186.2585 -63.6853
L-186.4013 -63.6139
" />
<path d="M-186.4013 -63.6139
L-186.6870 -63.6139
" />
<path d="M-186.6870 -63.6139
L-186.8299 -63.6853
" />
<path d="M-185.2585 -63.6139
L-185.4013 -63.6853
" />
<path d="M-185.4013 -63.6853
L-185.4727 -63.8282
" />
<path d="M-185.4727 -63.8282
L-185.4727 -65.1139
" />
<path d="M-184.6870 -63.6139
L-184.6870 -64.6139
" />
<path d="M-184.6870 -65.1139
L-184.7585 -65.0424
" />
<path d="M-184.7585 -65.0424
L-184.6870 -64.9710
" />
<path d="M-184.6870 -64.9710
L-184.6156 -65.0424
" />
<path d="M-184.6156 -65.0424
L-184.6870 -65.1139
" />
<path d="M-184.6870 -65.1139
L-184.6870 -64.9710
" />
<path d="M-183.9727 -64.6139
L-183.9727 -63.6139
" />
<path d="M-183.9727 -64.4710
L-183.9013 -64.5424
" />
<path d="M-183.9013 -64.5424
L-183.7585 -64.6139
" />
<path d="M-183.7585 -64.6139
L-183.5442 -64.6139
" />
<path d="M-183.5442 -64.6139
L-183.4013 -64.5424
" />
<path d="M-183.4013 -64.5424
L-183.3299 -64.3996
" />
<path d="M-183.3299 -64.3996
L-183.3299 -63.6139
" />
<path d="M-182.6156 -63.6139
L-182.6156 -65.1139
" />
<path d="M-182.4727 -64.1853
L-182.0442 -63.6139
" />
<path d="M-182.0442 -64.6139
L-182.6156 -64.0424
" />
<path d="M-180.8299 -63.6853
L-180.9727 -63.6139
" />
<path d="M-180.9727 -63.6139
L-181.2585 -63.6139
" />
<path d="M-181.2585 -63.6139
L-181.4013 -63.6853
" />
<path d="M-181.4013 -63.6853
L-181.4727 -63.8282
" />
<path d="M-181.4727 -63.8282
L-181.4727 -64.3996
" />
<path d="M-181.4727 -64.3996
L-181.4013 -64.5424
" />
<path d="M-181.4013 -64.5424
L-181.2585 -64.6139
" />
<path d="M-181.2585 -64.6139
L-180.9727 -64.6139
" />
<path d="M-180.9727 -64.6139
L-180.8299 -64.5424
" />
<path d="M-180.8299 -64.5424
L-180.7585 -64.3996
" />
<path d="M-180.7585 -64.3996
L-180.7585 -64.2567
" />
<path d="M-180.7585 -64.2567
L-181.4727 -64.1139
" />
<path d="M-180.1156 -63.6139
L-180.1156 -64.6139
" />
<path d="M-180.1156 -64.3282
L-180.0442 -64.4710
" />
<path d="M-180.0442 -64.4710
L-179.9727 -64.5424
" />
<path d="M-179.9727 -64.5424
L-179.8299 -64.6139
" />
<path d="M-179.8299 -64.6139
L-179.6870 -64.6139
" />
<path d="M-179.1870 -63.7567
L-179.1156 -63.6853
" />
<path d="M-179.1156 -63.6853
L-179.1870 -63.6139
" />
<path d="M-179.1870 -63.6139
L-179.2585 -63.6853
" />
<path d="M-179.2585 -63.6853
L-179.1870 -63.7567
" />
<path d="M-179.1870 -63.7567
L-179.1870 -63.6139
" />
<path d="M-178.4727 -63.6139
L-178.4727 -65.1139
" />
<path d="M-178.3299 -64.1853
L-177.9013 -63.6139
" />
<path d="M-177.9013 -64.6139
L-178.4727 -64.0424
" />
<path d="M-177.2585 -63.6139
L-177.2585 -64.6139
" />
<path d="M-177.2585 -65.1139
L-177.3299 -65.0424
" />
<path d="M-177.3299 -65.0424
L-177.2585 -64.9710
" />
<path d="M-177.2585 -64.9710
L-177.1870 -65.0424
" />
<path d="M-177.1870 -65.0424
L-177.2585 -65.1139
" />
<path d="M-177.2585 -65.1139
L-177.2585 -64.9710
" />
<path d="M-175.9013 -63.6853
L-176.0442 -63.6139
" />
<path d="M-176.0442 -63.6139
L-176.3299 -63.6139
" />
<path d="M-176.3299 -63.6139
L-176.4727 -63.6853
" />
<path d="M-176.4727 -63.6853
L-176.5442 -63.7567
" />
<path d="M-176.5442 -63.7567
L-176.6156 -63.8996
" />
<path d="M-176.6156 -63.8996
L-176.6156 -64.3282
" />
<path d="M-176.6156 -64.3282
L-176.5442 -64.4710
" />
<path d="M-176.5442 -64.4710
L-176.4727 -64.5424
" />
<path d="M-176.4727 -64.5424
L-176.3299 -64.6139
" />
<path d="M-176.3299 -64.6139
L-176.0442 -64.6139
" />
<path d="M-176.0442 -64.6139
L-175.9013 -64.5424
" />
<path d="M-174.6156 -63.6139
L-174.6156 -64.3996
" />
<path d="M-174.6156 -64.3996
L-174.6870 -64.5424
" />
<path d="M-174.6870 -64.5424
L-174.8299 -64.6139
" />
<path d="M-174.8299 -64.6139
L-175.1156 -64.6139
" />
<path d="M-175.1156 -64.6139
L-175.2585 -64.5424
" />
<path d="M-174.6156 -63.6853
L-174.7585 -63.6139
" />
<path d="M-174.7585 -63.6139
L-175.1156 -63.6139
" />
<path d="M-175.1156 -63.6139
L-175.2585 -63.6853
" />
<path d="M-175.2585 -63.6853
L-175.3299 -63.8282
" />
<path d="M-175.3299 -63.8282
L-175.3299 -63.9710
" />
<path d="M-175.3299 -63.9710
L-175.2585 -64.1139
" />
<path d="M-175.2585 -64.1139
L-175.1156 -64.1853
" />
<path d="M-175.1156 -64.1853
L-174.7585 -64.1853
" />
<path d="M-174.7585 -64.1853
L-174.6156 -64.2567
" />
<path d="M-173.2585 -63.6139
L-173.2585 -65.1139
" />
<path d="M-173.2585 -63.6853
L-173.4013 -63.6139
" />
<path d="M-173.4013 -63.6139
L-173.6870 -63.6139
" />
<path d="M-173.6870 -63.6139
L-173.8299 -63.6853
" />
<path d="M-173.8299 -63.6853
L-173.9013 -63.7567
" />
<path d="M-173.9013 -63.7567
L-173.9727 -63.8996
" />
<path d="M-173.9727 -63.8996
L-173.9727 -64.3282
" />
<path d="M-173.9727 -64.3282
L-173.9013 -64.4710
" />
<path d="M-173.9013 -64.4710
L-173.8299 -64.5424
" />
<path d="M-173.8299 -64.5424
L-173.6870 -64.6139
" />
<path d="M-173.6870 -64.6139
L-173.4013 -64.6139
" />
<path d="M-173.4013 -64.6139
L-173.2585 -64.5424
" />
<path d="M-172.9013 -63.4710
L-171.7585 -63.4710
" />
<path d="M-171.4013 -64.6139
L-171.4013 -63.1139
" />
<path d="M-171.4013 -64.5424
L-171.2585 -64.6139
" />
<path d="M-171.2585 -64.6139
L-170.9727 -64.6139
" />
<path d="M-170.9727 -64.6139
L-170.8299 -64.5424
" />
<path d="M-170.8299 -64.5424
L-170.7585 -64.4710
" />
<path d="M-170.7585 -64.4710
L-170.6870 -64.3282
" />
<path d="M-170.6870 -64.3282
L-170.6870 -63.8996
" />
<path d="M-170.6870 -63.8996
L-170.7585 -63.7567
" />
<path d="M-170.7585 -63.7567
L-170.8299 -63.6853
" />
<path d="M-170.8299 -63.6853
L-170.9727 -63.6139
" />
<path d="M-170.9727 -63.6139
L-171.2585 -63.6139
" />
<path d="M-171.2585 -63.6139
L-171.4013 -63.6853
" />
<path d="M-169.4013 -63.6853
L-169.5442 -63.6139
" />
<path d="M-169.5442 -63.6139
L-169.8299 -63.6139
" />
<path d="M-169.8299 -63.6139
L-169.9727 -63.6853
" />
<path d="M-169.9727 -63.6853
L-170.0442 -63.7567
" />
<path d="M-170.0442 -63.7567
L-170.1156 -63.8996
" />
<path d="M-170.1156 -63.8996
L-170.1156 -64.3282
" />
<path d="M-170.1156 -64.3282
L-170.0442 -64.4710
" />
<path d="M-170.0442 -64.4710
L-169.9727 -64.5424
" />
<path d="M-169.9727 -64.5424
L-169.8299 -64.6139
" />
<path d="M-169.8299 -64.6139
L-169.5442 -64.6139
" />
<path d="M-169.5442 -64.6139
L-169.4013 -64.5424
" />
<path d="M-168.7585 -63.6139
L-168.7585 -65.1139
" />
<path d="M-168.7585 -64.5424
L-168.6156 -64.6139
" />
<path d="M-168.6156 -64.6139
L-168.3299 -64.6139
" />
<path d="M-168.3299 -64.6139
L-168.1870 -64.5424
" />
<path d="M-168.1870 -64.5424
L-168.1156 -64.4710
" />
<path d="M-168.1156 -64.4710
L-168.0442 -64.3282
" />
<path d="M-168.0442 -64.3282
L-168.0442 -63.8996
" />
<path d="M-168.0442 -63.8996
L-168.1156 -63.7567
" />
<path d="M-168.1156 -63.7567
L-168.1870 -63.6853
" />
<path d="M-168.1870 -63.6853
L-168.3299 -63.6139
" />
<path d="M-168.3299 -63.6139
L-168.6156 -63.6139
" />
<path d="M-168.6156 -63.6139
L-168.7585 -63.6853
" />
</g></g>
<g style="fill:none; 
stroke:#C872AB; stroke-width:0.1500; stroke-opacity:1; 
stroke-linecap:round; stroke-linejoin:round;">
<path d="M-200.0000 -68.5000
L-92.0000 -68.5000
" />
</g>
<g style="fill:none; 
stroke:#C872AB; stroke-width:0.1500; stroke-opacity:1; 
stroke-linecap:round; stroke-linejoin:round;">
<text x="-199.0000" y="-66.2500"
textLength="8.2214" font-size="2.0000" lengthAdjust="spacingAndGlyphs"
text-anchor="start" opacity="0" stroke-opacity="0">Sheet: </text>
<g class="stroked-text"><desc>Sheet: </desc>
<path d="M-198.6156 -66.3853
L-198.4013 -66.3139
" />
<path d="M-198.4013 -66.3139
L-198.0442 -66.3139
" />
<path d="M-198.0442 -66.3139
L-197.9013 -66.3853
" />
<path d="M-197.9013 -66.3853
L-197.8299 -66.4567
" />
<path d="M-197.8299 -66.4567
L-197.7585 -66.5996
" />
<path d="M-197.7585 -66.5996
L-197.7585 -66.7424
" />
<path d="M-197.7585 -66.7424
L-197.8299 -66.8853
" />
<path d="M-197.8299 -66.8853
L-197.9013 -66.9567
" />
<path d="M-197.9013 -66.9567
L-198.0442 -67.0282
" />
<path d="M-198.0442 -67.0282
L-198.3299 -67.0996
" />
<path d="M-198.3299 -67.0996
L-198.4727 -67.1710
" />
<path d="M-198.4727 -67.1710
L-198.5442 -67.2424
" />
<path d="M-198.5442 -67.2424
L-198.6156 -67.3853
" />
<path d="M-198.6156 -67.3853
L-198.6156 -67.5282
" />
<path d="M-198.6156 -67.5282
L-198.5442 -67.6710
" />
<path d="M-198.5442 -67.6710
L-198.4727 -67.7424
" />
<path d="M-198.4727 -67.7424
L-198.3299 -67.8139
" />
<path d="M-198.3299 -67.8139
L-197.9727 -67.8139
" />
<path d="M-197.9727 -67.8139
L-197.7585 -67.7424
" />
<path d="M-197.1156 -66.3139
L-197.1156 -67.8139
" />
<path d="M-196.4727 -66.3139
L-196.4727 -67.0996
" />
<path d="M-196.4727 -67.0996
L-196.5442 -67.2424
" />
<path d="M-196.5442 -67.2424
L-196.6870 -67.3139
" />
<path d="M-196.6870 -67.3139
L-196.9013 -67.3139
" />
<path d="M-196.9013 -67.3139
L-197.0442 -67.2424
" />
<path d="M-197.0442 -67.2424
L-197.1156 -67.1710
" />
<path d="M-195.1870 -66.3853
L-195.3299 -66.3139
" />
<path d="M-195.3299 -66.3139
L-195.6156 -66.3139
" />
<path d="M-195.6156 -66.3139
L-195.7585 -66.3853
" />
<path d="M-195.7585 -66.3853
L-195.8299 -66.5282
" />
<path d="M-195.8299 -66.5282
L-195.8299 -67.0996
" />
<path d="M-195.8299 -67.0996
L-195.7585 -67.2424
" />
<path d="M-195.7585 -67.2424
L-195.6156 -67.3139
" />
<path d="M-195.6156 -67.3139
L-195.3299 -67.3139
" />
<path d="M-195.3299 -67.3139
L-195.1870 -67.2424
" />
<path d="M-195.1870 -67.2424
L-195.1156 -67.0996
" />
<path d="M-195.1156 -67.0996
L-195.1156 -66.9567
" />
<path d="M-195.1156 -66.9567
L-195.8299 -66.8139
" />
<path d="M-193.9013 -66.3853
L-194.0442 -66.3139
" />
<path d="M-194.0442 -66.3139
L-194.3299 -66.3139
" />
<path d="M-194.3299 -66.3139
L-194.4727 -66.3853
" />
<path d="M-194.4727 -66.3853
L-194.5442 -66.5282
" />
<path d="M-194.5442 -66.5282
L-194.5442 -67.0996
" />
<path d="M-194.5442 -67.0996
L-194.4727 -67.2424
" />
<path d="M-194.4727 -67.2424
L-194.3299 -67.3139
" />
<path d="M-194.3299 -67.3139
L-194.0442 -67.3139
" />
<path d="M-194.0442 -67.3139
L-193.9013 -67.2424
" />
<path d="M-193.9013 -67.2424
L-193.8299 -67.0996
" />
<path d="M-193.8299 -67.0996
L-193.8299 -66.9567
" />
<path d="M-193.8299 -66.9567
L-194.5442 -66.8139
" />
<path d="M-193.4013 -67.3139
L-192.8299 -67.3139
" />
<path d="M-193.1870 -67.8139
L-193.1870 -66.5282
" />
<path d="M-193.1870 -66.5282
L-193.1156 -66.3853
" />
<path d="M-193.1156 -66.3853
L-192.9727 -66.3139
" />
<path d="M-192.9727 -66.3139
L-192.8299 -66.3139
" />
<path d="M-192.3299 -66.4567
L-192.2585 -66.3853
" />
<path d="M-192.2585 -66.3853
L-192.3299 -66.3139
" />
<path d="M-192.3299 -66.3139
L-192.4013 -66.3853
" />
<path d="M-192.4013 -66.3853
L-192.3299 -66.4567
" />
<path d="M-192.3299 -66.4567
L-192.3299 -66.3139
" />
<path d="M-192.3299 -67.2424
L-192.2585 -67.1710
" />
<path d="M-192.2585 -67.1710
L-192.3299 -67.0996
" />
<path d="M-192.3299 -67.0996
L-192.4013 -67.1710
" />
<path d="M-192.4013 -67.1710
L-192.3299 -67.2424
" />
<path d="M-192.3299 -67.2424
L-192.3299 -67.0996
" />
</g></g>
<g style="fill:none; 
stroke:#C872AB; stroke-width:0.3000; stroke-opacity:1; 
stroke-linecap:round; stroke-linejoin:round;">
<text x="-199.0000" y="-69.2500"
textLength="0.9000" font-size="2.0000" lengthAdjust="spacingAndGlyphs"
text-anchor="start" opacity="0" stroke-opacity="0"></text>
<g class="stroked-text"><desc></desc>
</g></g>
<g style="fill:none; 
stroke:#C872AB; stroke-width:0.1500; stroke-opacity:1; 
stroke-linecap:round; stroke-linejoin:round;">
<text x="-199.0000" y="-72.2500"
textLength="0.4500" font-size="2.0000" lengthAdjust="spacingAndGlyphs"
text-anchor="start" opacity="0" stroke-opacity="0"></text>
<g class="stroked-text"><desc></desc>
</g></g>
<g style="fill:none; 
stroke:#C872AB; stroke-width:0.1500; stroke-opacity:1; 
stroke-linecap:round; stroke-linejoin:round;">
<text x="-199.0000" y="-75.2500"
textLength="0.4500" font-size="2.0000" lengthAdjust="spacingAndGlyphs"
text-anchor="start" opacity="0" stroke-opacity="0"></text>
<g class="stroked-text"><desc></desc>
</g></g>
<g style="fill:none; 
stroke:#C872AB; stroke-width:0.1500; stroke-opacity:1; 
stroke-linecap:round; stroke-linejoin:round;">
<text x="-199.0000" y="-78.2500"
textLength="0.4500" font-size="2.0000" lengthAdjust="spacingAndGlyphs"
text-anchor="start" opacity="0" stroke-opacity="0"></text>
<g class="stroked-text"><desc></desc>
</g></g>
<g style="fill:none; 
stroke:#C872AB; stroke-width:0.1500; stroke-opacity:1; 
stroke-linecap:round; stroke-linejoin:round;">
<text x="-199.0000" y="-81.2500"
textLength="0.4500" font-size="2.0000" lengthAdjust="spacingAndGlyphs"
text-anchor="start" opacity="0" stroke-opacity="0"></text>
<g class="stroked-text"><desc></desc>
</g></g>
<g style="fill:none; 
stroke:#C872AB; stroke-width:0.1500; stroke-opacity:1; 
stroke-linecap:round; stroke-linejoin:round;">
<path d="M-180.0000 -58.5000
L-180.0000 -55.5000
" />
</g>
<g style="fill:none; 
stroke:#C872AB; stroke-width:0.1500; stroke-opacity:1; 
stroke-linecap:round; stroke-linejoin:round;">
<path d="M-116.0000 -58.5000
L-116.0000 -52.0000
" />
</g>
<g style="fill:none; 
stroke:#4D7FC4; stroke-width:1.1000; stroke-opacity:1; 
stroke-linecap:round; stroke-linejoin:round;">
<path d="M15.8000 10.6800
L15.2000 10.6800
" />
<path d="M12.0000 10.6800
L11.4000 10.6800
" />
<path d="M15.8000 19.3200
L15.2000 19.3200
" />
<path d="M12.0000 19.3200
L11.4000 19.3200
" />
</g>
<g style="fill:#4D7FC4; fill-opacity:1.0000; stroke:none;">
<circle cx="21.0000" cy="17.3000" r="0.3000" /> 
</g>
<g style="fill:#4D7FC4; fill-opacity:1.0000; stroke:none;">
<circle cx="34.5000" cy="15.7000" r="0.3000" /> 
</g>
<g style="fill:#4D7FC4; fill-opacity:1.0000; stroke:none;">
<circle cx="21.0000" cy="14.3000" r="0.3000" /> 
</g>
<g style="fill:#4D7FC4; fill-opacity:1.0000; stroke:none;">
<circle cx="26.0500" cy="16.7500" r="0.3000" /> 
</g>
<g style="fill:#4D7FC4; fill-opacity:1.0000; stroke:none;">
<circle cx="34.5000" cy="12.7000" r="0.3000" /> 
</g>
<g style="fill:#4D7FC4; fill-opacity:1.0000; stroke:none;">
<circle cx="21.5000" cy="18.7000" r="0.3000" /> 
<path style="fill:#4D7FC4; fill-opacity:1.0000; stroke:none;fill-rule:evenodd;"
d="M 36.9425,9.0202
36.9883,9.0730
36.9995,9.1245
36.9995,20.8755
36.9798,20.9425
36.9270,20.9883
36.8755,20.9995
9.7245,20.9995
9.6575,20.9798
9.6117,20.9270
9.6005,20.8755
9.6005,19.0700
10.3792,19.0700
11.2330,19.0700
11.2158,19.0799
11.1599,19.1358
11.1204,19.2042
11.1000,19.2805
11.1000,19.3595
11.1204,19.4358
11.1599,19.5042
11.2158,19.5601
11.2330,19.5700
10.3792,19.5700
10.3903,19.6263
10.3904,19.6263
10.4695,19.8174
10.4695,19.8174
10.5844,19.9893
10.5844,19.9893
10.7307,20.1356
10.7307,20.1356
10.9026,20.2505
10.9026,20.2505
11.0937,20.3296
11.0937,20.3297
11.2966,20.3700
11.2966,20.3700
11.4500,20.3700
11.4500,19.6200
11.9500,19.6200
11.9500,20.3700
12.1034,20.3700
12.1034,20.3700
12.3063,20.3297
12.3063,20.3296
12.4974,20.2505
12.4974,20.2505
12.6693,20.1356
12.6693,20.1356
12.8156,19.9893
12.8156,19.9893
12.9305,19.8174
12.9305,19.8174
13.0096,19.6263
13.0096,19.6263
13.0208,19.5700
12.1670,19.5700
12.1842,19.5601
12.2401,19.5042
12.2796,19.4358
12.3000,19.3595
12.3000,19.2805
12.2796,19.2042
12.2401,19.1358
12.1842,19.0799
12.1670,19.0700
13.0208,19.0700
14.1792,19.0700
15.0330,19.0700
15.0158,19.0799
14.9599,19.1358
14.9204,19.2042
14.9000,19.2805
14.9000,19.3595
14.9204,19.4358
14.9599,19.5042
15.0158,19.5601
15.0330,19.5700
14.1792,19.5700
14.1903,19.6263
14.1904,19.6263
14.2695,19.8174
14.2695,19.8174
14.3844,19.9893
14.3844,19.9893
14.5307,20.1356
14.5307,20.1356
14.7026,20.2505
14.7026,20.2505
14.8937,20.3296
14.8937,20.3297
15.0966,20.3700
15.0966,20.3700
15.2500,20.3700
15.2500,19.6200
15.7500,19.6200
15.7500,20.3700
15.9034,20.3700
15.9034,20.3700
16.1063,20.3297
16.1063,20.3296
16.2974,20.2505
16.2974,20.2505
16.4693,20.1356
16.4693,20.1356
16.6156,19.9893
16.6156,19.9893
16.7305,19.8174
16.7305,19.8174
16.8096,19.6263
16.8096,19.6263
16.8208,19.5700
15.9670,19.5700
15.9842,19.5601
16.0401,19.5042
16.0796,19.4358
16.1000,19.3595
16.1000,19.2805
16.0796,19.2042
16.0401,19.1358
15.9842,19.0799
15.9670,19.0700
16.8208,19.0700
16.8096,19.0137
16.8096,19.0137
16.7305,18.8226
16.7305,18.8226
16.6156,18.6507
16.6156,18.6507
16.4693,18.5044
16.4693,18.5044
16.2974,18.3895
16.2974,18.3895
16.1063,18.3103
16.1063,18.3103
15.9034,18.2700
15.7500,18.2700
15.7500,19.0200
15.2500,19.0200
15.2500,18.2700
15.0966,18.2700
14.8937,18.3103
14.8937,18.3103
14.7026,18.3895
14.7026,18.3895
14.5307,18.5044
14.5307,18.5044
14.3844,18.6507
14.3844,18.6507
14.2695,18.8226
14.2695,18.8226
14.1904,19.0137
14.1903,19.0137
14.1792,19.0700
13.0208,19.0700
13.0096,19.0137
13.0096,19.0137
12.9305,18.8226
12.9305,18.8226
12.8156,18.6507
12.8156,18.6507
12.6693,18.5044
12.6693,18.5044
12.4974,18.3895
12.4974,18.3895
12.3063,18.3103
12.3063,18.3103
12.1034,18.2700
11.9500,18.2700
11.9500,19.0200
11.4500,19.0200
11.4500,18.2700
11.2966,18.2700
11.0937,18.3103
11.0937,18.3103
10.9026,18.3895
10.9026,18.3895
10.7307,18.5044
10.7307,18.5044
10.5844,18.6507
10.5844,18.6507
10.4695,18.8226
10.4695,18.8226
10.3904,19.0137
10.3903,19.0137
10.3792,19.0700
9.6005,19.0700
9.6005,10.4300
10.3792,10.4300
11.2330,10.4300
11.2158,10.4399
11.1599,10.4958
11.1204,10.5642
11.1000,10.6405
11.1000,10.7195
11.1204,10.7958
11.1599,10.8642
11.2158,10.9201
11.2330,10.9300
10.3792,10.9300
10.3903,10.9863
10.3904,10.9863
10.4695,11.1774
10.4695,11.1774
10.5844,11.3493
10.5844,11.3493
10.7307,11.4956
10.7307,11.4956
10.9026,11.6105
10.9026,11.6105
11.0937,11.6896
11.0937,11.6897
11.2966,11.7300
11.2966,11.7300
11.4500,11.7300
11.4500,10.9800
11.9500,10.9800
11.9500,11.7300
12.1034,11.7300
12.1034,11.7300
12.3063,11.6897
12.3063,11.6896
12.4974,11.6105
12.4974,11.6105
12.6693,11.4956
12.6693,11.4956
12.8156,11.3493
12.8156,11.3493
12.9305,11.1774
12.9305,11.1774
13.0096,10.9863
13.0096,10.9863
13.0208,10.9300
12.1670,10.9300
12.1842,10.9201
12.2401,10.8642
12.2796,10.7958
12.3000,10.7195
12.3000,10.6405
12.2796,10.5642
12.2401,10.4958
12.1842,10.4399
12.1670,10.4300
13.0208,10.4300
14.1792,10.4300
15.0330,10.4300
15.0158,10.4399
14.9599,10.4958
14.9204,10.5642
14.9000,10.6405
14.9000,10.7195
14.9204,10.7958
14.9599,10.8642
15.0158,10.9201
15.0330,10.9300
14.1792,10.9300
14.1903,10.9863
14.1904,10.9863
14.2695,11.1774
14.2695,11.1774
14.3844,11.3493
14.3844,11.3493
14.5307,11.4956
14.5307,11.4956
14.7026,11.6105
14.7026,11.6105
14.8937,11.6896
14.8937,11.6897
15.0966,11.7300
15.0966,11.7300
15.2500,11.7300
15.2500,10.9800
15.7500,10.9800
15.7500,11.7300
15.9034,11.7300
15.9034,11.7300
16.1063,11.6897
16.1063,11.6896
16.2974,11.6105
16.2974,11.6105
16.4693,11.4956
16.4693,11.4956
16.6156,11.3493
16.6156,11.3493
16.7305,11.1774
16.7305,11.1774
16.8096,10.9863
16.8096,10.9863
16.8208,10.9300
15.9670,10.9300
15.9842,10.9201
16.0401,10.8642
16.0796,10.7958
16.1000,10.7195
16.1000,10.6405
16.0796,10.5642
16.0401,10.4958
15.9842,10.4399
15.9670,10.4300
16.8208,10.4300
16.8096,10.3737
16.8096,10.3737
16.7305,10.1826
16.7305,10.1826
16.6156,10.0107
16.6156,10.0107
16.4693,9.8644
16.4693,9.8644
16.2974,9.7495
16.2974,9.7495
16.1063,9.6703
16.1063,9.6703
15.9034,9.6300
15.7500,9.6300
15.7500,10.3800
15.2500,10.3800
15.2500,9.6300
15.0966,9.6300
14.8937,9.6703
14.8937,9.6703
14.7026,9.7495
14.7026,9.7495
14.5307,9.8644
14.5307,9.8644
14.3844,10.0107
14.3844,10.0107
14.2695,10.1826
14.2695,10.1826
14.1904,10.3737
14.1903,10.3737
14.1792,10.4300
13.0208,10.4300
13.0096,10.3737
13.0096,10.3737
12.9305,10.1826
12.9305,10.1826
12.8156,10.0107
12.8156,10.0107
12.6693,9.8644
12.6693,9.8644
12.4974,9.7495
12.4974,9.7495
12.3063,9.6703
12.3063,9.6703
12.1034,9.6300
11.9500,9.6300
11.9500,10.3800
11.4500,10.3800
11.4500,9.6300
11.2966,9.6300
11.0937,9.6703
11.0937,9.6703
10.9026,9.7495
10.9026,9.7495
10.7307,9.8644
10.7307,9.8644
10.5844,10.0107
10.5844,10.0107
10.4695,10.1826
10.4695,10.1826
10.3904,10.3737
10.3903,10.3737
10.3792,10.4300
9.6005,10.4300
9.6005,9.1245
9.6202,9.0575
9.6730,9.0117
9.7245,9.0005
36.8755,9.0005
Z" /> 
</g>
<g style="fill:none; 
stroke:#F2EDA1; stroke-width:0.1500; stroke-opacity:1; 
stroke-linecap:round; stroke-linejoin:round;">
<text x="36.9000" y="20.6000"
textLength="14.7262" font-size="1.3333" lengthAdjust="spacingAndGlyphs"
text-anchor="end" opacity="0" stroke-opacity="0">USB-BLINKER V0.1</text>
<g class="stroked-text"><desc>USB-BLINKER V0.1</desc>
<path d="M22.5632 19.4698
L22.5632 20.2793
" />
<path d="M22.5632 20.2793
L22.6108 20.3746
" />
<path d="M22.6108 20.3746
L22.6585 20.4222
" />
<path d="M22.6585 20.4222
L22.7537 20.4698
" />
<path d="M22.7537 20.4698
L22.9442 20.4698
" />
<path d="M22.9442 20.4698
L23.0394 20.4222
" />
<path d="M23.0394 20.4222
L23.0870 20.3746
" />
<path d="M23.0870 20.3746
L23.1346 20.2793
" />
<path d="M23.1346 20.2793
L23.1346 19.4698
" />
<path d="M23.5632 20.4222
L23.7061 20.4698
" />
<path d="M23.7061 20.4698
L23.9442 20.4698
" />
<path d="M23.9442 20.4698
L24.0394 20.4222
" />
<path d="M24.0394 20.4222
L24.0870 20.3746
" />
<path d="M24.0870 20.3746
L24.1346 20.2793
" />
<path d="M24.1346 20.2793
L24.1346 20.1841
" />
<path d="M24.1346 20.1841
L24.0870 20.0889
" />
<path d="M24.0870 20.0889
L24.0394 20.0412
" />
<path d="M24.0394 20.0412
L23.9442 19.9936
" />
<path d="M23.9442 19.9936
L23.7537 19.9460
" />
<path d="M23.7537 19.9460
L23.6585 19.8984
" />
<path d="M23.6585 19.8984
L23.6108 19.8508
" />
<path d="M23.6108 19.8508
L23.5632 19.7555
" />
<path d="M23.5632 19.7555
L23.5632 19.6603
" />
<path d="M23.5632 19.6603
L23.6108 19.5651
" />
<path d="M23.6108 19.5651
L23.6585 19.5174
" />
<path d="M23.6585 19.5174
L23.7537 19.4698
" />
<path d="M23.7537 19.4698
L23.9918 19.4698
" />
<path d="M23.9918 19.4698
L24.1346 19.5174
" />
<path d="M24.8966 19.9460
L25.0394 19.9936
" />
<path d="M25.0394 19.9936
L25.0870 20.0412
" />
<path d="M25.0870 20.0412
L25.1346 20.1365
" />
<path d="M25.1346 20.1365
L25.1346 20.2793
" />
<path d="M25.1346 20.2793
L25.0870 20.3746
" />
<path d="M25.0870 20.3746
L25.0394 20.4222
" />
<path d="M25.0394 20.4222
L24.9442 20.4698
" />
<path d="M24.9442 20.4698
L24.5632 20.4698
" />
<path d="M24.5632 20.4698
L24.5632 19.4698
" />
<path d="M24.5632 19.4698
L24.8966 19.4698
" />
<path d="M24.8966 19.4698
L24.9918 19.5174
" />
<path d="M24.9918 19.5174
L25.0394 19.5651
" />
<path d="M25.0394 19.5651
L25.0870 19.6603
" />
<path d="M25.0870 19.6603
L25.0870 19.7555
" />
<path d="M25.0870 19.7555
L25.0394 19.8508
" />
<path d="M25.0394 19.8508
L24.9918 19.8984
" />
<path d="M24.9918 19.8984
L24.8966 19.9460
" />
<path d="M24.8966 19.9460
L24.5632 19.9460
" />
<path d="M25.5632 20.0889
L26.3251 20.0889
" />
<path d="M27.1346 19.9460
L27.2775 19.9936
" />
<path d="M27.2775 19.9936
L27.3251 20.0412
" />
<path d="M27.3251 20.0412
L27.3727 20.1365
" />
<path d="M27.3727 20.1365
L27.3727 20.2793
" />
<path d="M27.3727 20.2793
L27.3251 20.3746
" />
<path d="M27.3251 20.3746
L27.2775 20.4222
" />
<path d="M27.2775 20.4222
L27.1823 20.4698
" />
<path d="M27.1823 20.4698
L26.8013 20.4698
" />
<path d="M26.8013 20.4698
L26.8013 19.4698
" />
<path d="M26.8013 19.4698
L27.1346 19.4698
" />
<path d="M27.1346 19.4698
L27.2299 19.5174
" />
<path d="M27.2299 19.5174
L27.2775 19.5651
" />
<path d="M27.2775 19.5651
L27.3251 19.6603
" />
<path d="M27.3251 19.6603
L27.3251 19.7555
" />
<path d="M27.3251 19.7555
L27.2775 19.8508
" />
<path d="M27.2775 19.8508
L27.2299 19.8984
" />
<path d="M27.2299 19.8984
L27.1346 19.9460
" />
<path d="M27.1346 19.9460
L26.8013 19.9460
" />
<path d="M28.2775 20.4698
L27.8013 20.4698
" />
<path d="M27.8013 20.4698
L27.8013 19.4698
" />
<path d="M28.6108 20.4698
L28.6108 19.4698
" />
<path d="M29.0870 20.4698
L29.0870 19.4698
" />
<path d="M29.0870 19.4698
L29.6585 20.4698
" />
<path d="M29.6585 20.4698
L29.6585 19.4698
" />
<path d="M30.1346 20.4698
L30.1346 19.4698
" />
<path d="M30.7061 20.4698
L30.2775 19.8984
" />
<path d="M30.7061 19.4698
L30.1346 20.0412
" />
<path d="M31.1346 19.9460
L31.4680 19.9460
" />
<path d="M31.6108 20.4698
L31.1346 20.4698
" />
<path d="M31.1346 20.4698
L31.1346 19.4698
" />
<path d="M31.1346 19.4698
L31.6108 19.4698
" />
<path d="M32.6108 20.4698
L32.2775 19.9936
" />
<path d="M32.0394 20.4698
L32.0394 19.4698
" />
<path d="M32.0394 19.4698
L32.4204 19.4698
" />
<path d="M32.4204 19.4698
L32.5156 19.5174
" />
<path d="M32.5156 19.5174
L32.5632 19.5651
" />
<path d="M32.5632 19.5651
L32.6108 19.6603
" />
<path d="M32.6108 19.6603
L32.6108 19.8032
" />
<path d="M32.6108 19.8032
L32.5632 19.8984
" />
<path d="M32.5632 19.8984
L32.5156 19.9460
" />
<path d="M32.5156 19.9460
L32.4204 19.9936
" />
<path d="M32.4204 19.9936
L32.0394 19.9936
" />
<path d="M33.6585 19.4698
L33.9918 20.4698
" />
<path d="M33.9918 20.4698
L34.3251 19.4698
" />
<path d="M34.8489 19.4698
L34.9442 19.4698
" />
<path d="M34.9442 19.4698
L35.0394 19.5174
" />
<path d="M35.0394 19.5174
L35.0870 19.5651
" />
<path d="M35.0870 19.5651
L35.1346 19.6603
" />
<path d="M35.1346 19.6603
L35.1823 19.8508
" />
<path d="M35.1823 19.8508
L35.1823 20.0889
" />
<path d="M35.1823 20.0889
L35.1346 20.2793
" />
<path d="M35.1346 20.2793
L35.0870 20.3746
" />
<path d="M35.0870 20.3746
L35.0394 20.4222
" />
<path d="M35.0394 20.4222
L34.9442 20.4698
" />
<path d="M34.9442 20.4698
L34.8489 20.4698
" />
<path d="M34.8489 20.4698
L34.7537 20.4222
" />
<path d="M34.7537 20.4222
L34.7061 20.3746
" />
<path d="M34.7061 20.3746
L34.6585 20.2793
" />
<path d="M34.6585 20.2793
L34.6108 20.0889
" />
<path d="M34.6108 20.0889
L34.6108 19.8508
" />
<path d="M34.6108 19.8508
L34.6585 19.6603
" />
<path d="M34.6585 19.6603
L34.7061 19.5651
" />
<path d="M34.7061 19.5651
L34.7537 19.5174
" />
<path d="M34.7537 19.5174
L34.8489 19.4698
" />
<path d="M35.6108 20.3746
L35.6585 20.4222
" />
<path d="M35.6585 20.4222
L35.6108 20.4698
" />
<path d="M35.6108 20.4698
L35.5632 20.4222
" />
<path d="M35.5632 20.4222
L35.6108 20.3746
" />
<path d="M35.6108 20.3746
L35.6108 20.4698
" />
<path d="M36.6108 20.4698
L36.0394 20.4698
" />
<path d="M36.3251 20.4698
L36.3251 19.4698
" />
<path d="M36.3251 19.4698
L36.2299 19.6127
" />
<path d="M36.2299 19.6127
L36.1346 19.7079
" />
<path d="M36.1346 19.7079
L36.0394 19.7555
" />
</g><text x="23.0000" y="17.1000"
textLength="2.2024" font-size="1.3333" lengthAdjust="spacingAndGlyphs"
text-anchor="middle" opacity="0" stroke-opacity="0">C1</text>
<g class="stroked-text"><desc>C1</desc>
<path d="M22.8333 16.9596
L22.7857 17.0072
" />
<path d="M22.7857 17.0072
L22.6429 17.0548
" />
<path d="M22.6429 17.0548
L22.5476 17.0548
" />
<path d="M22.5476 17.0548
L22.4048 17.0072
" />
<path d="M22.4048 17.0072
L22.3095 16.9120
" />
<path d="M22.3095 16.9120
L22.2619 16.8167
" />
<path d="M22.2619 16.8167
L22.2143 16.6262
" />
<path d="M22.2143 16.6262
L22.2143 16.4834
" />
<path d="M22.2143 16.4834
L22.2619 16.2929
" />
<path d="M22.2619 16.2929
L22.3095 16.1977
" />
<path d="M22.3095 16.1977
L22.4048 16.1024
" />
<path d="M22.4048 16.1024
L22.5476 16.0548
" />
<path d="M22.5476 16.0548
L22.6429 16.0548
" />
<path d="M22.6429 16.0548
L22.7857 16.1024
" />
<path d="M22.7857 16.1024
L22.8333 16.1501
" />
<path d="M23.7857 17.0548
L23.2143 17.0548
" />
<path d="M23.5000 17.0548
L23.5000 16.0548
" />
<path d="M23.5000 16.0548
L23.4048 16.1977
" />
<path d="M23.4048 16.1977
L23.3095 16.2929
" />
<path d="M23.3095 16.2929
L23.2143 16.3405
" />
</g><text x="33.0000" y="11.0700"
textLength="2.2024" font-size="1.3333" lengthAdjust="spacingAndGlyphs"
text-anchor="middle" opacity="0" stroke-opacity="0">C2</text>
<g class="stroked-text"><desc>C2</desc>
<path d="M32.8333 10.9296
L32.7857 10.9772
" />
<path d="M32.7857 10.9772
L32.6429 11.0248
" />
<path d="M32.6429 11.0248
L32.5476 11.0248
" />
<path d="M32.5476 11.0248
L32.4048 10.9772
" />
<path d="M32.4048 10.9772
L32.3095 10.8820
" />
<path d="M32.3095 10.8820
L32.2619 10.7867
" />
<path d="M32.2619 10.7867
L32.2143 10.5962
" />
<path d="M32.2143 10.5962
L32.2143 10.4534
" />
<path d="M32.2143 10.4534
L32.2619 10.2629
" />
<path d="M32.2619 10.2629
L32.3095 10.1677
" />
<path d="M32.3095 10.1677
L32.4048 10.0724
" />
<path d="M32.4048 10.0724
L32.5476 10.0248
" />
<path d="M32.5476 10.0248
L32.6429 10.0248
" />
<path d="M32.6429 10.0248
L32.7857 10.0724
" />
<path d="M32.7857 10.0724
L32.8333 10.1201
" />
<path d="M33.2143 10.1201
L33.2619 10.0724
" />
<path d="M33.2619 10.0724
L33.3571 10.0248
" />
<path d="M33.3571 10.0248
L33.5952 10.0248
" />
<path d="M33.5952 10.0248
L33.6905 10.0724
" />
<path d="M33.6905 10.0724
L33.7381 10.1201
" />
<path d="M33.7381 10.1201
L33.7857 10.2153
" />
<path d="M33.7857 10.2153
L33.7857 10.3105
" />
<path d="M33.7857 10.3105
L33.7381 10.4534
" />
<path d="M33.7381 10.4534
L33.1667 11.0248
" />
<path d="M33.1667 11.0248
L33.7857 11.0248
" />
</g><text x="19.5000" y="17.0700"
textLength="2.2024" font-size="1.3333" lengthAdjust="spacingAndGlyphs"
text-anchor="middle" opacity="0" stroke-opacity="0">R1</text>
<g class="stroked-text"><desc>R1</desc>
<path d="M19.3333 17.0248
L19.0000 16.5486
" />
<path d="M18.7619 17.0248
L18.7619 16.0248
" />
<path d="M18.7619 16.0248
L19.1429 16.0248
" />
<path d="M19.1429 16.0248
L19.2381 16.0724
" />
<path d="M19.2381 16.0724
L19.2857 16.1201
" />
<path d="M19.2857 16.1201
L19.3333 16.2153
" />
<path d="M19.3333 16.2153
L19.3333 16.3582
" />
<path d="M19.3333 16.3582
L19.2857 16.4534
" />
<path d="M19.2857 16.4534
L19.2381 16.5010
" />
<path d="M19.2381 16.5010
L19.1429 16.5486
" />
<path d="M19.1429 16.5486
L18.7619 16.5486
" />
<path d="M20.2857 17.0248
L19.7143 17.0248
" />
<path d="M20.0000 17.0248
L20.0000 16.0248
" />
<path d="M20.0000 16.0248
L19.9048 16.1677
" />
<path d="M19.9048 16.1677
L19.8095 16.2629
" />
<path d="M19.8095 16.2629
L19.7143 16.3105
" />
</g><text x="19.5000" y="11.0700"
textLength="2.0595" font-size="1.3333" lengthAdjust="spacingAndGlyphs"
text-anchor="middle" opacity="0" stroke-opacity="0">F1</text>
<g class="stroked-text"><desc>F1</desc>
<path d="M19.1667 10.5010
L18.8333 10.5010
" />
<path d="M18.8333 11.0248
L18.8333 10.0248
" />
<path d="M18.8333 10.0248
L19.3095 10.0248
" />
<path d="M20.2143 11.0248
L19.6429 11.0248
" />
<path d="M19.9286 11.0248
L19.9286 10.0248
" />
<path d="M19.9286 10.0248
L19.8333 10.1677
" />
<path d="M19.8333 10.1677
L19.7381 10.2629
" />
<path d="M19.7381 10.2629
L19.6429 10.3105
" />
</g><g transform="rotate(-90.000000 35.7500 12.6000)">
<text x="35.7500" y="13.1000"
textLength="2.2024" font-size="1.3333" lengthAdjust="spacingAndGlyphs"
text-anchor="middle" opacity="0" stroke-opacity="0">D1</text>
</g>
<g class="stroked-text"><desc>D1</desc>
<path d="M36.2048 13.3381
L35.2048 13.3381
" />
<path d="M35.2048 13.3381
L35.2048 13.1000
" />
<path d="M35.2048 13.1000
L35.2524 12.9571
" />
<path d="M35.2524 12.9571
L35.3477 12.8619
" />
<path d="M35.3477 12.8619
L35.4429 12.8143
" />
<path d="M35.4429 12.8143
L35.6334 12.7667
" />
<path d="M35.6334 12.7667
L35.7762 12.7667
" />
<path d="M35.7762 12.7667
L35.9667 12.8143
" />
<path d="M35.9667 12.8143
L36.0620 12.8619
" />
<path d="M36.0620 12.8619
L36.1572 12.9571
" />
<path d="M36.1572 12.9571
L36.2048 13.1000
" />
<path d="M36.2048 13.1000
L36.2048 13.3381
" />
<path d="M36.2048 11.8143
L36.2048 12.3857
" />
<path d="M36.2048 12.1000
L35.2048 12.1000
" />
<path d="M35.2048 12.1000
L35.3477 12.1952
" />
<path d="M35.3477 12.1952
L35.4429 12.2905
" />
<path d="M35.4429 12.2905
L35.4905 12.3857
" />
</g><text x="19.5000" y="14.0700"
textLength="2.2024" font-size="1.3333" lengthAdjust="spacingAndGlyphs"
text-anchor="middle" opacity="0" stroke-opacity="0">R2</text>
<g class="stroked-text"><desc>R2</desc>
<path d="M19.3333 14.0248
L19.0000 13.5486
" />
<path d="M18.7619 14.0248
L18.7619 13.0248
" />
<path d="M18.7619 13.0248
L19.1429 13.0248
" />
<path d="M19.1429 13.0248
L19.2381 13.0724
" />
<path d="M19.2381 13.0724
L19.2857 13.1201
" />
<path d="M19.2857 13.1201
L19.3333 13.2153
" />
<path d="M19.3333 13.2153
L19.3333 13.3582
" />
<path d="M19.3333 13.3582
L19.2857 13.4534
" />
<path d="M19.2857 13.4534
L19.2381 13.5010
" />
<path d="M19.2381 13.5010
L19.1429 13.5486
" />
<path d="M19.1429 13.5486
L18.7619 13.5486
" />
<path d="M19.7143 13.1201
L19.7619 13.0724
" />
<path d="M19.7619 13.0724
L19.8571 13.0248
" />
<path d="M19.8571 13.0248
L20.0952 13.0248
" />
<path d="M20.0952 13.0248
L20.1905 13.0724
" />
<path d="M20.1905 13.0724
L20.2381 13.1201
" />
<path d="M20.2381 13.1201
L20.2857 13.2153
" />
<path d="M20.2857 13.2153
L20.2857 13.3105
" />
<path d="M20.2857 13.3105
L20.2381 13.4534
" />
<path d="M20.2381 13.4534
L19.6667 14.0248
" />
<path d="M19.6667 14.0248
L20.2857 14.0248
" />
</g><text x="33.0000" y="17.1000"
textLength="2.2024" font-size="1.3333" lengthAdjust="spacingAndGlyphs"
text-anchor="middle" opacity="0" stroke-opacity="0">R5</text>
<g class="stroked-text"><desc>R5</desc>
<path d="M32.8333 17.0548
L32.5000 16.5786
" />
<path d="M32.2619 17.0548
L32.2619 16.0548
" />
<path d="M32.2619 16.0548
L32.6429 16.0548
" />
<path d="M32.6429 16.0548
L32.7381 16.1024
" />
<path d="M32.7381 16.1024
L32.7857 16.1501
" />
<path d="M32.7857 16.1501
L32.8333 16.2453
" />
<path d="M32.8333 16.2453
L32.8333 16.3882
" />
<path d="M32.8333 16.3882
L32.7857 16.4834
" />
<path d="M32.7857 16.4834
L32.7381 16.5310
" />
<path d="M32.7381 16.5310
L32.6429 16.5786
" />
<path d="M32.6429 16.5786
L32.2619 16.5786
" />
<path d="M33.7381 16.0548
L33.2619 16.0548
" />
<path d="M33.2619 16.0548
L33.2143 16.5310
" />
<path d="M33.2143 16.5310
L33.2619 16.4834
" />
<path d="M33.2619 16.4834
L33.3571 16.4358
" />
<path d="M33.3571 16.4358
L33.5952 16.4358
" />
<path d="M33.5952 16.4358
L33.6905 16.4834
" />
<path d="M33.6905 16.4834
L33.7381 16.5310
" />
<path d="M33.7381 16.5310
L33.7857 16.6262
" />
<path d="M33.7857 16.6262
L33.7857 16.8643
" />
<path d="M33.7857 16.8643
L33.7381 16.9596
" />
<path d="M33.7381 16.9596
L33.6905 17.0072
" />
<path d="M33.6905 17.0072
L33.5952 17.0548
" />
<path d="M33.5952 17.0548
L33.3571 17.0548
" />
<path d="M33.3571 17.0548
L33.2619 17.0072
" />
<path d="M33.2619 17.0072
L33.2143 16.9596
" />
</g><text x="28.0000" y="11.0000"
textLength="2.2500" font-size="1.3333" lengthAdjust="spacingAndGlyphs"
text-anchor="middle" opacity="0" stroke-opacity="0">U1</text>
<g class="stroked-text"><desc>U1</desc>
<path d="M27.2381 9.9548
L27.2381 10.7643
" />
<path d="M27.2381 10.7643
L27.2857 10.8596
" />
<path d="M27.2857 10.8596
L27.3333 10.9072
" />
<path d="M27.3333 10.9072
L27.4286 10.9548
" />
<path d="M27.4286 10.9548
L27.6190 10.9548
" />
<path d="M27.6190 10.9548
L27.7143 10.9072
" />
<path d="M27.7143 10.9072
L27.7619 10.8596
" />
<path d="M27.7619 10.8596
L27.8095 10.7643
" />
<path d="M27.8095 10.7643
L27.8095 9.9548
" />
<path d="M28.8095 10.9548
L28.2381 10.9548
" />
<path d="M28.5238 10.9548
L28.5238 9.9548
" />
<path d="M28.5238 9.9548
L28.4286 10.0977
" />
<path d="M28.4286 10.0977
L28.3333 10.1929
" />
<path d="M28.3333 10.1929
L28.2381 10.2405
" />
</g><text x="23.0000" y="14.1000"
textLength="2.2024" font-size="1.3333" lengthAdjust="spacingAndGlyphs"
text-anchor="middle" opacity="0" stroke-opacity="0">R4</text>
<g class="stroked-text"><desc>R4</desc>
<path d="M22.8333 14.0548
L22.5000 13.5786
" />
<path d="M22.2619 14.0548
L22.2619 13.0548
" />
<path d="M22.2619 13.0548
L22.6429 13.0548
" />
<path d="M22.6429 13.0548
L22.7381 13.1024
" />
<path d="M22.7381 13.1024
L22.7857 13.1501
" />
<path d="M22.7857 13.1501
L22.8333 13.2453
" />
<path d="M22.8333 13.2453
L22.8333 13.3882
" />
<path d="M22.8333 13.3882
L22.7857 13.4834
" />
<path d="M22.7857 13.4834
L22.7381 13.5310
" />
<path d="M22.7381 13.5310
L22.6429 13.5786
" />
<path d="M22.6429 13.5786
L22.2619 13.5786
" />
<path d="M23.6905 13.3882
L23.6905 14.0548
" />
<path d="M23.4524 13.0072
L23.2143 13.7215
" />
<path d="M23.2143 13.7215
L23.8333 13.7215
" />
</g><text x="33.0000" y="14.1000"
textLength="2.2024" font-size="1.3333" lengthAdjust="spacingAndGlyphs"
text-anchor="middle" opacity="0" stroke-opacity="0">C3</text>
<g class="stroked-text"><desc>C3</desc>
<path d="M32.8333 13.9596
L32.7857 14.0072
" />
<path d="M32.7857 14.0072
L32.6429 14.0548
" />
<path d="M32.6429 14.0548
L32.5476 14.0548
" />
<path d="M32.5476 14.0548
L32.4048 14.0072
" />
<path d="M32.4048 14.0072
L32.3095 13.9120
" />
<path d="M32.3095 13.9120
L32.2619 13.8167
" />
<path d="M32.2619 13.8167
L32.2143 13.6262
" />
<path d="M32.2143 13.6262
L32.2143 13.4834
" />
<path d="M32.2143 13.4834
L32.2619 13.2929
" />
<path d="M32.2619 13.2929
L32.3095 13.1977
" />
<path d="M32.3095 13.1977
L32.4048 13.1024
" />
<path d="M32.4048 13.1024
L32.5476 13.0548
" />
<path d="M32.5476 13.0548
L32.6429 13.0548
" />
<path d="M32.6429 13.0548
L32.7857 13.1024
" />
<path d="M32.7857 13.1024
L32.8333 13.1501
" />
<path d="M33.1667 13.0548
L33.7857 13.0548
" />
<path d="M33.7857 13.0548
L33.4524 13.4358
" />
<path d="M33.4524 13.4358
L33.5952 13.4358
" />
<path d="M33.5952 13.4358
L33.6905 13.4834
" />
<path d="M33.6905 13.4834
L33.7381 13.5310
" />
<path d="M33.7381 13.5310
L33.7857 13.6262
" />
<path d="M33.7857 13.6262
L33.7857 13.8643
" />
<path d="M33.7857 13.8643
L33.7381 13.9596
" />
<path d="M33.7381 13.9596
L33.6905 14.0072
" />
<path d="M33.6905 14.0072
L33.5952 14.0548
" />
<path d="M33.5952 14.0548
L33.3095 14.0548
" />
<path d="M33.3095 14.0548
L33.2143 14.0072
" />
<path d="M33.2143 14.0072
L33.1667 13.9596
" />
</g><text x="23.0000" y="11.1000"
textLength="2.2024" font-size="1.3333" lengthAdjust="spacingAndGlyphs"
text-anchor="middle" opacity="0" stroke-opacity="0">R3</text>
<g class="stroked-text"><desc>R3</desc>
<path d="M22.8333 11.0548
L22.5000 10.5786
" />
<path d="M22.2619 11.0548
L22.2619 10.0548
" />
<path d="M22.2619 10.0548
L22.6429 10.0548
" />
<path d="M22.6429 10.0548
L22.7381 10.1024
" />
<path d="M22.7381 10.1024
L22.7857 10.1501
" />
<path d="M22.7857 10.1501
L22.8333 10.2453
" />
<path d="M22.8333 10.2453
L22.8333 10.3882
" />
<path d="M22.8333 10.3882
L22.7857 10.4834
" />
<path d="M22.7857 10.4834
L22.7381 10.5310
" />
<path d="M22.7381 10.5310
L22.6429 10.5786
" />
<path d="M22.6429 10.5786
L22.2619 10.5786
" />
<path d="M23.1667 10.0548
L23.7857 10.0548
" />
<path d="M23.7857 10.0548
L23.4524 10.4358
" />
<path d="M23.4524 10.4358
L23.5952 10.4358
" />
<path d="M23.5952 10.4358
L23.6905 10.4834
" />
<path d="M23.6905 10.4834
L23.7381 10.5310
" />
<path d="M23.7381 10.5310
L23.7857 10.6262
" />
<path d="M23.7857 10.6262
L23.7857 10.8643
" />
<path d="M23.7857 10.8643
L23.7381 10.9596
" />
<path d="M23.7381 10.9596
L23.6905 11.0072
" />
<path d="M23.6905 11.0072
L23.5952 11.0548
" />
<path d="M23.5952 11.0548
L23.3095 11.0548
" />
<path d="M23.3095 11.0548
L23.2143 11.0072
" />
<path d="M23.2143 11.0072
L23.1667 10.9596
" />
</g></g>
<g style="fill:none; 
stroke:#F2EDA1; stroke-width:0.1200; stroke-opacity:1; 
stroke-linecap:round; stroke-linejoin:round;">
<path d="M23.1406 17.4900
L22.8594 17.4900
" />
<path d="M23.1406 18.5100
L22.8594 18.5100
" />
<path d="M12.7500 10.3300
L14.4500 10.3300
" />
<path d="M12.7500 19.6700
L14.4500 19.6700
" />
<path d="M32.8594 11.4900
L33.1406 11.4900
" />
<path d="M32.8594 12.5100
L33.1406 12.5100
" />
<path d="M19.2627 17.4775
L19.7373 17.4775
" />
<path d="M19.2627 18.5225
L19.7373 18.5225
" />
<path d="M19.3372 11.4900
L19.6628 11.4900
" />
<path d="M19.3372 12.5100
L19.6628 12.5100
" />
<path d="M35.0150 14.2000
L35.0150 16.4850
" />
<path d="M35.0150 16.4850
L36.4850 16.4850
" />
<path d="M36.4850 16.4850
L36.4850 14.2000
" />
<path d="M19.2627 14.4775
L19.7373 14.4775
" />
<path d="M19.2627 15.5225
L19.7373 15.5225
" />
<path d="M33.2373 17.4775
L32.7627 17.4775
" />
<path d="M33.2373 18.5225
L32.7627 18.5225
" />
<path d="M25.3900 12.6900
L25.5900 12.6900
" />
<path d="M25.3900 17.3100
L25.3900 12.6900
" />
<path d="M25.5900 17.3100
L25.3900 17.3100
" />
<path d="M30.4100 12.6900
L30.6100 12.6900
" />
<path d="M30.6100 12.6900
L30.6100 17.3100
" />
<path d="M30.6100 17.3100
L30.4100 17.3100
" />
<path style="fill:#F2EDA1; fill-opacity:1.0000; 
stroke:#F2EDA1; stroke-width:0.1200; stroke-opacity:1; 
stroke-linecap:round; stroke-linejoin:round;fill-rule:evenodd;"
d="M 25.5900,17.9500
25.1200,18.2900
25.1200,17.6100
Z" /> 
</g>
<g style="fill:none; 
stroke:#F2EDA1; stroke-width:0.1200; stroke-opacity:1; 
stroke-linecap:round; stroke-linejoin:round;">
<path d="M22.7627 14.4775
L23.2373 14.4775
" />
<path d="M22.7627 15.5225
L23.2373 15.5225
" />
<path d="M33.1406 14.4900
L32.8594 14.4900
" />
<path d="M33.1406 15.5100
L32.8594 15.5100
" />
<path d="M23.2373 11.4775
L22.7627 11.4775
" />
<path d="M23.2373 12.5225
L22.7627 12.5225
" />
</g>
<g style="fill:none; 
stroke:#D0D2CD; stroke-width:0.0500; stroke-opacity:1; 
stroke-linecap:round; stroke-linejoin:round;">
<path d="M9.3500 21.5000
L37.2500 21.5000
" />
<path d="M9.1000 21.2500
L9.1000 8.7500
" />
<path d="M9.3500 8.5000 A0.2500 0.2500 0.0 0 0 9.1000 8.7500" />
<path d="M9.1000 21.2500 A0.2500 0.2500 0.0 0 0 9.3500 21.5000" />
<path d="M37.5000 8.7500
L37.5000 21.2500
" />
<path d="M9.3500 8.5000
L37.2500 8.5000
" />
<path d="M37.5000 8.7500 A0.2500 0.2500 0.0 0 0 37.2500 8.5000" />
<path d="M37.2500 21.5000 A0.2500 0.2500 0.0 0 0 37.5000 21.2500" />
<path style="fill:#C83434; fill-opacity:1.0000; stroke:none;fill-rule:evenodd;"
d="M 24.2250,18.2500
24.2079,18.3361
24.1591,18.4091
24.0861,18.4579
24.0000,18.4750
23.5500,18.4750
23.4639,18.4579
23.3909,18.4091
23.3421,18.3361
23.3250,18.2500
23.3250,17.7500
23.3421,17.6639
23.3909,17.5909
23.4639,17.5421
23.5500,17.5250
24.0000,17.5250
24.0861,17.5421
24.1591,17.5909
24.2079,17.6639
24.2250,17.7500
Z" /> 
<path style="fill:#C83434; fill-opacity:1.0000; stroke:none;fill-rule:evenodd;"
d="M 22.6750,18.2500
22.6579,18.3361
22.6091,18.4091
22.5361,18.4579
22.4500,18.4750
22.0000,18.4750
21.9139,18.4579
21.8409,18.4091
21.7921,18.3361
21.7750,18.2500
21.7750,17.7500
21.7921,17.6639
21.8409,17.5909
21.9139,17.5421
22.0000,17.5250
22.4500,17.5250
22.5361,17.5421
22.6091,17.5909
22.6579,17.6639
22.6750,17.7500
Z" /> 
<path style="fill:#C83434; fill-opacity:1.0000; stroke:none;fill-rule:evenodd;"
d="M 16.0050,14.1500
16.0720,14.1633
16.1287,14.2013
16.1667,14.2580
16.1800,14.3250
16.1800,14.6750
16.1667,14.7420
16.1287,14.7987
16.0720,14.8367
16.0050,14.8500
15.1550,14.8500
15.0880,14.8367
15.0313,14.7987
14.9933,14.7420
14.9800,14.6750
14.9800,14.3250
14.9933,14.2580
15.0313,14.2013
15.0880,14.1633
15.1550,14.1500
Z" /> 
<path style="fill:#C83434; fill-opacity:1.0000; stroke:none;fill-rule:evenodd;"
d="M 15.1700,16.9000
15.0973,16.8855
15.0356,16.8443
14.9945,16.7827
14.9800,16.7100
14.9800,16.3300
14.9945,16.2573
15.0356,16.1957
15.0973,16.1545
15.1700,16.1400
15.9900,16.1400
16.0627,16.1545
16.1243,16.1957
16.1655,16.2573
16.1800,16.3300
16.1800,16.7100
16.1655,16.7827
16.1243,16.8443
16.0627,16.8855
15.9900,16.9000
Z" /> 
<path style="fill:#C83434; fill-opacity:1.0000; stroke:none;fill-rule:evenodd;"
d="M 15.1800,18.1500
15.1035,18.1348
15.0386,18.0914
14.9952,18.0265
14.9800,17.9500
14.9800,17.5500
14.9952,17.4735
15.0386,17.4086
15.1035,17.3652
15.1800,17.3500
15.9800,17.3500
16.0565,17.3652
16.1214,17.4086
16.1648,17.4735
16.1800,17.5500
16.1800,17.9500
16.1648,18.0265
16.1214,18.0914
16.0565,18.1348
15.9800,18.1500
Z" /> 
<path style="fill:#C83434; fill-opacity:1.0000; stroke:none;fill-rule:evenodd;"
d="M 15.1550,15.8500
15.0880,15.8367
15.0313,15.7987
14.9933,15.7420
14.9800,15.6750
14.9800,15.3250
14.9933,15.2580
15.0313,15.2013
15.0880,15.1633
15.1550,15.1500
16.0050,15.1500
16.0720,15.1633
16.1287,15.2013
16.1667,15.2580
16.1800,15.3250
16.1800,15.6750
16.1667,15.7420
16.1287,15.7987
16.0720,15.8367
16.0050,15.8500
Z" /> 
<path style="fill:#C83434; fill-opacity:1.0000; stroke:none;fill-rule:evenodd;"
d="M 15.9900,13.1000
16.0627,13.1145
16.1243,13.1556
16.1655,13.2173
16.1800,13.2900
16.1800,13.6700
16.1655,13.7427
16.1243,13.8043
16.0627,13.8455
15.9900,13.8600
15.1700,13.8600
15.0973,13.8455
15.0356,13.8043
14.9945,13.7427
14.9800,13.6700
14.9800,13.2900
14.9945,13.2173
15.0356,13.1556
15.0973,13.1145
15.1700,13.1000
Z" /> 
<path style="fill:#C83434; fill-opacity:1.0000; stroke:none;fill-rule:evenodd;"
d="M 15.9800,11.8500
16.0565,11.8652
16.1214,11.9086
16.1648,11.9735
16.1800,12.0500
16.1800,12.4500
16.1648,12.5265
16.1214,12.5914
16.0565,12.6348
15.9800,12.6500
15.1800,12.6500
15.1035,12.6348
15.0386,12.5914
14.9952,12.5265
14.9800,12.4500
14.9800,12.0500
14.9952,11.9735
15.0386,11.9086
15.1035,11.8652
15.1800,11.8500
Z" /> 
</g>
<g style="fill:none; 
stroke:#C83434; stroke-width:1.1000; stroke-opacity:1; 
stroke-linecap:round; stroke-linejoin:round;">
<path d="M15.8000 10.6800
L15.2000 10.6800
" />
<path d="M12.0000 10.6800
L11.4000 10.6800
" />
<path d="M15.8000 19.3200
L15.2000 19.3200
" />
<path d="M12.0000 19.3200
L11.4000 19.3200
" />
<path style="fill:#C83434; fill-opacity:1.0000; stroke:none;fill-rule:evenodd;"
d="M 31.7750,11.7500
31.7921,11.6639
31.8409,11.5909
31.9139,11.5421
32.0000,11.5250
32.4500,11.5250
32.5361,11.5421
32.6091,11.5909
32.6579,11.6639
32.6750,11.7500
32.6750,12.2500
32.6579,12.3361
32.6091,12.4091
32.5361,12.4579
32.4500,12.4750
32.0000,12.4750
31.9139,12.4579
31.8409,12.4091
31.7921,12.3361
31.7750,12.2500
Z" /> 
<path style="fill:#C83434; fill-opacity:1.0000; stroke:none;fill-rule:evenodd;"
d="M 33.3250,11.7500
33.3421,11.6639
33.3909,11.5909
33.4639,11.5421
33.5500,11.5250
34.0000,11.5250
34.0861,11.5421
34.1591,11.5909
34.2079,11.6639
34.2250,11.7500
34.2250,12.2500
34.2079,12.3361
34.1591,12.4091
34.0861,12.4579
34.0000,12.4750
33.5500,12.4750
33.4639,12.4579
33.3909,12.4091
33.3421,12.3361
33.3250,12.2500
Z" /> 
<path style="fill:#C83434; fill-opacity:1.0000; stroke:none;fill-rule:evenodd;"
d="M 18.2750,17.7250
18.2902,17.6485
18.3336,17.5836
18.3985,17.5402
18.4750,17.5250
18.8750,17.5250
18.9515,17.5402
19.0164,17.5836
19.0598,17.6485
19.0750,17.7250
19.0750,18.2750
19.0598,18.3515
19.0164,18.4164
18.9515,18.4598
18.8750,18.4750
18.4750,18.4750
18.3985,18.4598
18.3336,18.4164
18.2902,18.3515
18.2750,18.2750
Z" /> 
<path style="fill:#C83434; fill-opacity:1.0000; stroke:none;fill-rule:evenodd;"
d="M 19.9250,17.7250
19.9402,17.6485
19.9836,17.5836
20.0485,17.5402
20.1250,17.5250
20.5250,17.5250
20.6015,17.5402
20.6664,17.5836
20.7098,17.6485
20.7250,17.7250
20.7250,18.2750
20.7098,18.3515
20.6664,18.4164
20.6015,18.4598
20.5250,18.4750
20.1250,18.4750
20.0485,18.4598
19.9836,18.4164
19.9402,18.3515
19.9250,18.2750
Z" /> 
<path style="fill:#C83434; fill-opacity:1.0000; stroke:none;fill-rule:evenodd;"
d="M 18.2750,11.7438
18.2917,11.6600
18.3391,11.5891
18.4100,11.5417
18.4937,11.5250
18.9312,11.5250
19.0150,11.5417
19.0859,11.5891
19.1333,11.6600
19.1500,11.7438
19.1500,12.2562
19.1333,12.3400
19.0859,12.4109
19.0150,12.4583
18.9312,12.4750
18.4937,12.4750
18.4100,12.4583
18.3391,12.4109
18.2917,12.3400
18.2750,12.2562
Z" /> 
<path style="fill:#C83434; fill-opacity:1.0000; stroke:none;fill-rule:evenodd;"
d="M 19.8500,11.7438
19.8667,11.6600
19.9141,11.5891
19.9850,11.5417
20.0687,11.5250
20.5062,11.5250
20.5900,11.5417
20.6609,11.5891
20.7083,11.6600
20.7250,11.7438
20.7250,12.2562
20.7083,12.3400
20.6609,12.4109
20.5900,12.4583
20.5062,12.4750
20.0687,12.4750
19.9850,12.4583
19.9141,12.4109
19.8667,12.3400
19.8500,12.2562
Z" /> 
<path style="fill:#C83434; fill-opacity:1.0000; stroke:none;fill-rule:evenodd;"
d="M 35.4937,16.2250
35.4100,16.2083
35.3391,16.1609
35.2917,16.0900
35.2750,16.0062
35.2750,15.5687
35.2917,15.4850
35.3391,15.4141
35.4100,15.3667
35.4937,15.3500
36.0063,15.3500
36.0900,15.3667
36.1609,15.4141
36.2083,15.4850
36.2250,15.5687
36.2250,16.0062
36.2083,16.0900
36.1609,16.1609
36.0900,16.2083
36.0063,16.2250
Z" /> 
<path style="fill:#C83434; fill-opacity:1.0000; stroke:none;fill-rule:evenodd;"
d="M 35.4937,14.6500
35.4100,14.6333
35.3391,14.5859
35.2917,14.5150
35.2750,14.4312
35.2750,13.9937
35.2917,13.9100
35.3391,13.8391
35.4100,13.7917
35.4937,13.7750
36.0063,13.7750
36.0900,13.7917
36.1609,13.8391
36.2083,13.9100
36.2250,13.9937
36.2250,14.4312
36.2083,14.5150
36.1609,14.5859
36.0900,14.6333
36.0063,14.6500
Z" /> 
<path style="fill:#C83434; fill-opacity:1.0000; stroke:none;fill-rule:evenodd;"
d="M 18.2750,14.7250
18.2902,14.6485
18.3336,14.5836
18.3985,14.5402
18.4750,14.5250
18.8750,14.5250
18.9515,14.5402
19.0164,14.5836
19.0598,14.6485
19.0750,14.7250
19.0750,15.2750
19.0598,15.3515
19.0164,15.4164
18.9515,15.4598
18.8750,15.4750
18.4750,15.4750
18.3985,15.4598
18.3336,15.4164
18.2902,15.3515
18.2750,15.2750
Z" /> 
<path style="fill:#C83434; fill-opacity:1.0000; stroke:none;fill-rule:evenodd;"
d="M 19.9250,14.7250
19.9402,14.6485
19.9836,14.5836
20.0485,14.5402
20.1250,14.5250
20.5250,14.5250
20.6015,14.5402
20.6664,14.5836
20.7098,14.6485
20.7250,14.7250
20.7250,15.2750
20.7098,15.3515
20.6664,15.4164
20.6015,15.4598
20.5250,15.4750
20.1250,15.4750
20.0485,15.4598
19.9836,15.4164
19.9402,15.3515
19.9250,15.2750
Z" /> 
<path style="fill:#C83434; fill-opacity:1.0000; stroke:none;fill-rule:evenodd;"
d="M 34.2250,18.2750
34.2098,18.3515
34.1664,18.4164
34.1015,18.4598
34.0250,18.4750
33.6250,18.4750
33.5485,18.4598
33.4836,18.4164
33.4402,18.3515
33.4250,18.2750
33.4250,17.7250
33.4402,17.6485
33.4836,17.5836
33.5485,17.5402
33.6250,17.5250
34.0250,17.5250
34.1015,17.5402
34.1664,17.5836
34.2098,17.6485
34.2250,17.7250
Z" /> 
<path style="fill:#C83434; fill-opacity:1.0000; stroke:none;fill-rule:evenodd;"
d="M 32.5750,18.2750
32.5598,18.3515
32.5164,18.4164
32.4515,18.4598
32.3750,18.4750
31.9750,18.4750
31.8985,18.4598
31.8336,18.4164
31.7902,18.3515
31.7750,18.2750
31.7750,17.7250
31.7902,17.6485
31.8336,17.5836
31.8985,17.5402
31.9750,17.5250
32.3750,17.5250
32.4515,17.5402
32.5164,17.5836
32.5598,17.6485
32.5750,17.7250
Z" /> 
<path style="fill:#C83434; fill-opacity:1.0000; stroke:none;fill-rule:evenodd;"
d="M 25.9500,18.6000
25.9117,18.5924
25.8793,18.5707
25.8576,18.5383
25.8500,18.5000
25.8500,17.2250
25.8576,17.1867
25.8793,17.1543
25.9117,17.1326
25.9500,17.1250
26.1500,17.1250
26.1883,17.1326
26.2207,17.1543
26.2424,17.1867
26.2500,17.2250
26.2500,18.5000
26.2424,18.5383
26.2207,18.5707
26.1883,18.5924
26.1500,18.6000
Z" /> 
<path style="fill:#C83434; fill-opacity:1.0000; stroke:none;fill-rule:evenodd;"
d="M 26.6000,18.6000
26.5617,18.5924
26.5293,18.5707
26.5076,18.5383
26.5000,18.5000
26.5000,17.2250
26.5076,17.1867
26.5293,17.1543
26.5617,17.1326
26.6000,17.1250
26.8000,17.1250
26.8383,17.1326
26.8707,17.1543
26.8924,17.1867
26.9000,17.2250
26.9000,18.5000
26.8924,18.5383
26.8707,18.5707
26.8383,18.5924
26.8000,18.6000
Z" /> 
<path style="fill:#C83434; fill-opacity:1.0000; stroke:none;fill-rule:evenodd;"
d="M 27.2500,18.6000
27.2117,18.5924
27.1793,18.5707
27.1576,18.5383
27.1500,18.5000
27.1500,17.2250
27.1576,17.1867
27.1793,17.1543
27.2117,17.1326
27.2500,17.1250
27.4500,17.1250
27.4883,17.1326
27.5207,17.1543
27.5424,17.1867
27.5500,17.2250
27.5500,18.5000
27.5424,18.5383
27.5207,18.5707
27.4883,18.5924
27.4500,18.6000
Z" /> 
<path style="fill:#C83434; fill-opacity:1.0000; stroke:none;fill-rule:evenodd;"
d="M 27.9000,18.6000
27.8617,18.5924
27.8293,18.5707
27.8076,18.5383
27.8000,18.5000
27.8000,17.2250
27.8076,17.1867
27.8293,17.1543
27.8617,17.1326
27.9000,17.1250
28.1000,17.1250
28.1383,17.1326
28.1707,17.1543
28.1924,17.1867
28.2000,17.2250
28.2000,18.5000
28.1924,18.5383
28.1707,18.5707
28.1383,18.5924
28.1000,18.6000
Z" /> 
<path style="fill:#C83434; fill-opacity:1.0000; stroke:none;fill-rule:evenodd;"
d="M 28.5500,18.6000
28.5117,18.5924
28.4793,18.5707
28.4576,18.5383
28.4500,18.5000
28.4500,17.2250
28.4576,17.1867
28.4793,17.1543
28.5117,17.1326
28.5500,17.1250
28.7500,17.1250
28.7883,17.1326
28.8207,17.1543
28.8424,17.1867
28.8500,17.2250
28.8500,18.5000
28.8424,18.5383
28.8207,18.5707
28.7883,18.5924
28.7500,18.6000
Z" /> 
<path style="fill:#C83434; fill-opacity:1.0000; stroke:none;fill-rule:evenodd;"
d="M 29.2000,18.6000
29.1617,18.5924
29.1293,18.5707
29.1076,18.5383
29.1000,18.5000
29.1000,17.2250
29.1076,17.1867
29.1293,17.1543
29.1617,17.1326
29.2000,17.1250
29.4000,17.1250
29.4383,17.1326
29.4707,17.1543
29.4924,17.1867
29.5000,17.2250
29.5000,18.5000
29.4924,18.5383
29.4707,18.5707
29.4383,18.5924
29.4000,18.6000
Z" /> 
<path style="fill:#C83434; fill-opacity:1.0000; stroke:none;fill-rule:evenodd;"
d="M 29.8500,18.6000
29.8117,18.5924
29.7793,18.5707
29.7576,18.5383
29.7500,18.5000
29.7500,17.2250
29.7576,17.1867
29.7793,17.1543
29.8117,17.1326
29.8500,17.1250
30.0500,17.1250
30.0883,17.1326
30.1207,17.1543
30.1424,17.1867
30.1500,17.2250
30.1500,18.5000
30.1424,18.5383
30.1207,18.5707
30.0883,18.5924
30.0500,18.6000
Z" /> 
<path style="fill:#C83434; fill-opacity:1.0000; stroke:none;fill-rule:evenodd;"
d="M 29.8500,12.8750
29.8117,12.8674
29.7793,12.8457
29.7576,12.8133
29.7500,12.7750
29.7500,11.5000
29.7576,11.4617
29.7793,11.4293
29.8117,11.4076
29.8500,11.4000
30.0500,11.4000
30.0883,11.4076
30.1207,11.4293
30.1424,11.4617
30.1500,11.5000
30.1500,12.7750
30.1424,12.8133
30.1207,12.8457
30.0883,12.8674
30.0500,12.8750
Z" /> 
<path style="fill:#C83434; fill-opacity:1.0000; stroke:none;fill-rule:evenodd;"
d="M 29.2000,12.8750
29.1617,12.8674
29.1293,12.8457
29.1076,12.8133
29.1000,12.7750
29.1000,11.5000
29.1076,11.4617
29.1293,11.4293
29.1617,11.4076
29.2000,11.4000
29.4000,11.4000
29.4383,11.4076
29.4707,11.4293
29.4924,11.4617
29.5000,11.5000
29.5000,12.7750
29.4924,12.8133
29.4707,12.8457
29.4383,12.8674
29.4000,12.8750
Z" /> 
<path style="fill:#C83434; fill-opacity:1.0000; stroke:none;fill-rule:evenodd;"
d="M 28.5500,12.8750
28.5117,12.8674
28.4793,12.8457
28.4576,12.8133
28.4500,12.7750
28.4500,11.5000
28.4576,11.4617
28.4793,11.4293
28.5117,11.4076
28.5500,11.4000
28.7500,11.4000
28.7883,11.4076
28.8207,11.4293
28.8424,11.4617
28.8500,11.5000
28.8500,12.7750
28.8424,12.8133
28.8207,12.8457
28.7883,12.8674
28.7500,12.8750
Z" /> 
<path style="fill:#C83434; fill-opacity:1.0000; stroke:none;fill-rule:evenodd;"
d="M 27.9000,12.8750
27.8617,12.8674
27.8293,12.8457
27.8076,12.8133
27.8000,12.7750
27.8000,11.5000
27.8076,11.4617
27.8293,11.4293
27.8617,11.4076
27.9000,11.4000
28.1000,11.4000
28.1383,11.4076
28.1707,11.4293
28.1924,11.4617
28.2000,11.5000
28.2000,12.7750
28.1924,12.8133
28.1707,12.8457
28.1383,12.8674
28.1000,12.8750
Z" /> 
<path style="fill:#C83434; fill-opacity:1.0000; stroke:none;fill-rule:evenodd;"
d="M 27.2500,12.8750
27.2117,12.8674
27.1793,12.8457
27.1576,12.8133
27.1500,12.7750
27.1500,11.5000
27.1576,11.4617
27.1793,11.4293
27.2117,11.4076
27.2500,11.4000
27.4500,11.4000
27.4883,11.4076
27.5207,11.4293
27.5424,11.4617
27.5500,11.5000
27.5500,12.7750
27.5424,12.8133
27.5207,12.8457
27.4883,12.8674
27.4500,12.8750
Z" /> 
<path style="fill:#C83434; fill-opacity:1.0000; stroke:none;fill-rule:evenodd;"
d="M 26.6000,12.8750
26.5617,12.8674
26.5293,12.8457
26.5076,12.8133
26.5000,12.7750
26.5000,11.5000
26.5076,11.4617
26.5293,11.4293
26.5617,11.4076
26.6000,11.4000
26.8000,11.4000
26.8383,11.4076
26.8707,11.4293
26.8924,11.4617
26.9000,11.5000
26.9000,12.7750
26.8924,12.8133
26.8707,12.8457
26.8383,12.8674
26.8000,12.8750
Z" /> 
<path style="fill:#C83434; fill-opacity:1.0000; stroke:none;fill-rule:evenodd;"
d="M 25.9500,12.8750
25.9117,12.8674
25.8793,12.8457
25.8576,12.8133
25.8500,12.7750
25.8500,11.5000
25.8576,11.4617
25.8793,11.4293
25.9117,11.4076
25.9500,11.4000
26.1500,11.4000
26.1883,11.4076
26.2207,11.4293
26.2424,11.4617
26.2500,11.5000
26.2500,12.7750
26.2424,12.8133
26.2207,12.8457
26.1883,12.8674
26.1500,12.8750
Z" /> 
<path style="fill:#C83434; fill-opacity:1.0000; stroke:none;fill-rule:evenodd;"
d="M 21.7750,14.7250
21.7902,14.6485
21.8336,14.5836
21.8985,14.5402
21.9750,14.5250
22.3750,14.5250
22.4515,14.5402
22.5164,14.5836
22.5598,14.6485
22.5750,14.7250
22.5750,15.2750
22.5598,15.3515
22.5164,15.4164
22.4515,15.4598
22.3750,15.4750
21.9750,15.4750
21.8985,15.4598
21.8336,15.4164
21.7902,15.3515
21.7750,15.2750
Z" /> 
<path style="fill:#C83434; fill-opacity:1.0000; stroke:none;fill-rule:evenodd;"
d="M 23.4250,14.7250
23.4402,14.6485
23.4836,14.5836
23.5485,14.5402
23.6250,14.5250
24.0250,14.5250
24.1015,14.5402
24.1664,14.5836
24.2098,14.6485
24.2250,14.7250
24.2250,15.2750
24.2098,15.3515
24.1664,15.4164
24.1015,15.4598
24.0250,15.4750
23.6250,15.4750
23.5485,15.4598
23.4836,15.4164
23.4402,15.3515
23.4250,15.2750
Z" /> 
<path style="fill:#C83434; fill-opacity:1.0000; stroke:none;fill-rule:evenodd;"
d="M 34.2250,15.2500
34.2079,15.3361
34.1591,15.4091
34.0861,15.4579
34.0000,15.4750
33.5500,15.4750
33.4639,15.4579
33.3909,15.4091
33.3421,15.3361
33.3250,15.2500
33.3250,14.7500
33.3421,14.6639
33.3909,14.5909
33.4639,14.5421
33.5500,14.5250
34.0000,14.5250
34.0861,14.5421
34.1591,14.5909
34.2079,14.6639
34.2250,14.7500
Z" /> 
<path style="fill:#C83434; fill-opacity:1.0000; stroke:none;fill-rule:evenodd;"
d="M 32.6750,15.2500
32.6579,15.3361
32.6091,15.4091
32.5361,15.4579
32.4500,15.4750
32.0000,15.4750
31.9139,15.4579
31.8409,15.4091
31.7921,15.3361
31.7750,15.2500
31.7750,14.7500
31.7921,14.6639
31.8409,14.5909
31.9139,14.5421
32.0000,14.5250
32.4500,14.5250
32.5361,14.5421
32.6091,14.5909
32.6579,14.6639
32.6750,14.7500
Z" /> 
<path style="fill:#C83434; fill-opacity:1.0000; stroke:none;fill-rule:evenodd;"
d="M 24.2250,12.2750
24.2098,12.3515
24.1664,12.4164
24.1015,12.4598
24.0250,12.4750
23.6250,12.4750
23.5485,12.4598
23.4836,12.4164
23.4402,12.3515
23.4250,12.2750
23.4250,11.7250
23.4402,11.6485
23.4836,11.5836
23.5485,11.5402
23.6250,11.5250
24.0250,11.5250
24.1015,11.5402
24.1664,11.5836
24.2098,11.6485
24.2250,11.7250
Z" /> 
<path style="fill:#C83434; fill-opacity:1.0000; stroke:none;fill-rule:evenodd;"
d="M 22.5750,12.2750
22.5598,12.3515
22.5164,12.4164
22.4515,12.4598
22.3750,12.4750
21.9750,12.4750
21.8985,12.4598
21.8336,12.4164
21.7902,12.3515
21.7750,12.2750
21.7750,11.7250
21.7902,11.6485
21.8336,11.5836
21.8985,11.5402
21.9750,11.5250
22.3750,11.5250
22.4515,11.5402
22.5164,11.5836
22.5598,11.6485
22.5750,11.7250
Z" /> 
</g>
<g style="fill:#C83434; fill-opacity:1.0000; stroke:none;">
<circle cx="21.0000" cy="17.3000" r="0.3000" /> 
</g>
<g style="fill:#C83434; fill-opacity:1.0000; stroke:none;">
<circle cx="34.5000" cy="15.7000" r="0.3000" /> 
</g>
<g style="fill:#C83434; fill-opacity:1.0000; stroke:none;">
<circle cx="21.0000" cy="14.3000" r="0.3000" /> 
</g>
<g style="fill:#C83434; fill-opacity:1.0000; stroke:none;">
<circle cx="26.0500" cy="16.7500" r="0.3000" /> 
</g>
<g style="fill:#C83434; fill-opacity:1.0000; stroke:none;">
<circle cx="34.5000" cy="12.7000" r="0.3000" /> 
</g>
<g style="fill:#C83434; fill-opacity:1.0000; stroke:none;">
<circle cx="21.5000" cy="18.7000" r="0.3000" /> 
</g>
<g style="fill:none; 
stroke:#C83434; stroke-width:0.2000; stroke-opacity:1; 
stroke-linecap:round; stroke-linejoin:round;">
<path d="M34.4750 15.7000
L33.7750 15.0000
" />
<path d="M33.5250 12.2500
L33.7750 12.0000
" />
<path d="M20.3250 14.9750
L20.3250 15.0000
" />
<path d="M34.4750 12.7000
L33.7750 12.0000
" />
<path d="M15.5000 17.8300
L15.5800 17.7500
" />
<path d="M22.2000 18.0000
L22.2250 18.0000
" />
<path d="M33.5250 15.2500
L33.7750 15.0000
" />
<path d="M20.3250 17.9750
L20.3250 18.0000
" />
<path d="M26.0500 16.7500
L26.0500 17.8625
" />
<path d="M15.5800 10.7600
L15.5000 10.6800
" />
<path d="M34.5000 12.7000
L34.4750 12.7000
" />
<path d="M34.5000 15.7000
L34.4750 15.7000
" />
<path d="M21.0000 14.3000
L20.3250 14.9750
" />
<path d="M15.5800 12.2500
L15.5800 10.7600
" />
<path d="M21.5000 18.7000
L22.2000 18.0000
" />
<path d="M15.5800 17.7500
L15.5800 19.2400
" />
<path d="M15.5800 19.2400
L15.5000 19.3200
" />
<path d="M21.0000 17.3000
L20.3250 17.9750
" />
<path d="M27.3500 15.8500
L26.5000 15.0000
" />
<path d="M26.5000 15.0000
L26.5250 15.0000
" />
<path d="M28.6500 12.8750
L28.6500 12.1375
" />
<path d="M24.0750 17.9500
L24.0250 18.0000
" />
<path d="M23.8250 15.0000
L24.0750 15.2500
" />
<path d="M24.0750 15.2500
L24.0750 17.9500
" />
<path d="M24.0250 18.0000
L23.7750 18.0000
" />
<path d="M26.5250 15.0000
L28.6500 12.8750
" />
<path d="M27.3500 17.8625
L27.3500 15.8500
" />
<path d="M23.8250 15.0000
L26.5000 15.0000
" />
<path d="M32.2250 12.0000
L30.0875 12.0000
" />
<path d="M30.0875 12.0000
L29.9500 12.1375
" />
<path d="M22.4250 13.4000
L22.4250 14.7500
" />
<path d="M26.8250 13.4000
L22.4250 13.4000
" />
<path d="M27.3500 12.1375
L27.3500 12.8750
" />
<path d="M27.3500 12.8750
L26.8250 13.4000
" />
<path d="M22.4250 12.0000
L22.4250 13.4000
" />
<path d="M22.4250 14.7500
L22.1750 15.0000
" />
<path d="M31.9250 18.0000
L31.0240 18.9010
" />
<path d="M28.7331 18.9010
L28.6500 18.8179
" />
<path d="M32.1750 18.0000
L31.9250 18.0000
" />
<path d="M31.0240 18.9010
L28.7331 18.9010
" />
<path d="M28.6500 18.8179
L28.6500 17.8625
" />
<path d="M16.1750 15.5000
L15.5800 15.5000
" />
<path d="M15.8300 15.2500
L15.5800 15.5000
" />
<path d="M18.6750 18.0000
L16.1750 15.5000
" />
<path d="M18.1750 14.5000
L15.5800 14.5000
" />
<path d="M18.6750 15.0000
L18.1750 14.5000
" />
<path d="M15.8300 14.2500
L15.5800 14.5000
" />
<path d="M33.8250 18.0000
L33.5750 17.7500
" />
<path d="M35.5000 15.7875
L35.7500 15.7875
" />
<path d="M33.5750 17.7500
L33.5750 17.7125
" />
<path d="M33.5750 17.7125
L35.5000 15.7875
" />
<path d="M32.7625 14.2125
L32.2250 14.7500
" />
<path d="M32.9760 11.5259
L32.9760 13.9990
" />
<path d="M21.0635 11.2240
L23.2990 11.2240
" />
<path d="M31.9750 15.0000
L32.2250 15.0000
" />
<path d="M29.9500 17.8625
L29.9500 17.0250
" />
<path d="M32.9760 13.9990
L32.7625 14.2125
" />
<path d="M23.2990 11.2240
L24.0750 12.0000
" />
<path d="M29.9500 17.0250
L31.9750 15.0000
" />
<path d="M24.0750 12.0000
L24.1000 12.0000
" />
<path d="M24.0750 12.0000
L24.9760 11.0990
" />
<path d="M35.7500 14.2125
L32.7625 14.2125
" />
<path d="M32.5491 11.0990
L32.9760 11.5259
" />
<path d="M24.2375 12.1375
L26.0500 12.1375
" />
<path d="M24.1000 12.0000
L24.2375 12.1375
" />
<path d="M20.2875 12.0000
L21.0635 11.2240
" />
<path d="M24.9760 11.0990
L32.5491 11.0990
" />
<path d="M32.2250 14.7500
L32.2250 15.0000
" />
<path d="M15.5800 13.4800
L15.7300 13.3300
" />
<path d="M14.6790 16.2190
L14.6790 14.1230
" />
<path d="M15.7300 13.2300
L15.7350 13.2250
" />
<path d="M14.9800 16.5200
L14.6790 16.2190
" />
<path d="M14.6790 14.1230
L15.3220 13.4800
" />
<path d="M15.5800 16.5200
L14.9800 16.5200
" />
<path d="M15.5800 13.4800
L17.2325 13.4800
" />
<path d="M15.3220 13.4800
L15.5800 13.4800
" />
<path d="M17.2325 13.4800
L18.7125 12.0000
" />
<path d="M15.7300 13.3300
L15.7300 13.2300
" />
</g>
<g style="fill:#FFFFFF; fill-opacity:1.0000; stroke:none;">
<circle cx="21.0000" cy="17.3000" r="0.1500" /> 
</g>
<g style="fill:#FFFFFF; fill-opacity:1.0000; stroke:none;">
<circle cx="34.5000" cy="15.7000" r="0.1500" /> 
</g>
<g style="fill:#FFFFFF; fill-opacity:1.0000; stroke:none;">
<circle cx="21.0000" cy="14.3000" r="0.1500" /> 
</g>
<g style="fill:#FFFFFF; fill-opacity:1.0000; stroke:none;">
<circle cx="26.0500" cy="16.7500" r="0.1500" /> 
</g>
<g style="fill:#FFFFFF; fill-opacity:1.0000; stroke:none;">
<circle cx="34.5000" cy="12.7000" r="0.1500" /> 
</g>
<g style="fill:#FFFFFF; fill-opacity:1.0000; stroke:none;">
<circle cx="21.5000" cy="18.7000" r="0.1500" /> 
</g>
<g style="fill:none; 
stroke:#FFFFFF; stroke-width:0.6000; stroke-opacity:1; 
stroke-linecap:round; stroke-linejoin:round;">
<path d="M15.8000 10.6800
L15.2000 10.6800
" />
<path d="M12.0000 10.6800
L11.4000 10.6800
" />
<path d="M15.8000 19.3200
L15.2000 19.3200
" />
<path d="M12.0000 19.3200
L11.4000 19.3200
" />
</g> 
</svg>
